<svg xmlns="http://www.w3.org/2000/svg" xmlns:xlink="http://www.w3.org/1999/xlink" width="977" zoomAndPan="magnify" viewBox="0 0 732.75 534.000001" height="712" preserveAspectRatio="xMidYMid meet" version="1.0"><defs><g/><clipPath id="c1214923fa"><path d="M 258.707031 218.066406 L 356.773438 218.066406 L 356.773438 314.636719 L 258.707031 314.636719 Z M 258.707031 218.066406 " clip-rule="nonzero"/></clipPath><clipPath id="39aa4ad45b"><path d="M 571 148 L 731.941406 148 L 731.941406 361 L 571 361 Z M 571 148 " clip-rule="nonzero"/></clipPath></defs><g fill="#32120e" fill-opacity="0.4"><g transform="translate(21.042649, 297.400833)"><g><path d="M 58.921875 1.734375 C 52.953125 1.734375 47.785156 0.421875 43.421875 -2.203125 C 39.054688 -4.828125 36.113281 -8.859375 34.59375 -14.296875 L 33.40625 -14.296875 L 33.40625 0 L 3.078125 0 L 3.078125 -1.609375 C 4.492188 -3.296875 5.710938 -7.097656 6.734375 -13.015625 C 7.765625 -18.941406 8.28125 -26.847656 8.28125 -36.734375 L 8.28125 -56.640625 C 8.28125 -66.617188 7.765625 -74.566406 6.734375 -80.484375 C 5.710938 -86.410156 4.492188 -90.21875 3.078125 -91.90625 L 3.078125 -93.515625 L 58.921875 -93.515625 C 66.484375 -93.515625 72.113281 -92.203125 75.8125 -89.578125 C 79.507812 -86.953125 81.359375 -83.546875 81.359375 -79.359375 C 81.359375 -76.421875 80.332031 -73.945312 78.28125 -71.9375 C 76.238281 -69.9375 73.523438 -68.421875 70.140625 -67.390625 C 66.753906 -66.367188 63.054688 -65.859375 59.046875 -65.859375 L 55.96875 -65.859375 L 55.96875 -64.265625 L 58.921875 -64.265625 C 66.046875 -64.265625 72.5 -62.972656 78.28125 -60.390625 C 84.070312 -57.804688 88.679688 -54.128906 92.109375 -49.359375 C 95.535156 -44.597656 97.25 -38.921875 97.25 -32.328125 C 97.25 -26.179688 95.867188 -20.523438 93.109375 -15.359375 C 90.347656 -10.191406 86.140625 -6.050781 80.484375 -2.9375 C 74.828125 0.175781 67.640625 1.734375 58.921875 1.734375 Z M 33.53125 -66.65625 L 43.28125 -66.65625 C 47.289062 -66.65625 50.363281 -67.789062 52.5 -70.0625 C 54.632812 -72.34375 55.703125 -75.128906 55.703125 -78.421875 C 55.703125 -81.535156 54.945312 -84.335938 53.4375 -86.828125 C 51.925781 -89.328125 49.476562 -90.578125 46.09375 -90.578125 L 33.53125 -90.578125 Z M 54.90625 -1.203125 C 59.976562 -1.203125 64.316406 -3.453125 67.921875 -7.953125 C 71.535156 -12.453125 73.34375 -18.707031 73.34375 -26.71875 C 73.34375 -30.90625 72.738281 -35.15625 71.53125 -39.46875 C 70.332031 -43.789062 68.578125 -47.773438 66.265625 -51.421875 C 63.953125 -55.078125 61.125 -58.019531 57.78125 -60.25 C 54.4375 -62.476562 50.582031 -63.59375 46.21875 -63.59375 L 33.40625 -63.59375 L 33.40625 -28.453125 L 34.46875 -28.453125 C 35.175781 -32.191406 36.734375 -35.195312 39.140625 -37.46875 C 41.546875 -39.738281 44.265625 -40.875 47.296875 -40.875 C 50.234375 -40.875 52.632812 -40.140625 54.5 -38.671875 C 56.375 -37.203125 57.78125 -35.285156 58.71875 -32.921875 C 59.65625 -30.566406 60.125 -28.054688 60.125 -25.390625 C 60.125 -24.140625 59.921875 -22.597656 59.515625 -20.765625 C 59.117188 -18.941406 58.695312 -17.675781 58.25 -16.96875 L 56.78125 -16.96875 C 56.957031 -18.65625 56.773438 -20.390625 56.234375 -22.171875 C 55.703125 -23.953125 54.789062 -25.46875 53.5 -26.71875 C 52.207031 -27.96875 50.492188 -28.59375 48.359375 -28.59375 C 45.597656 -28.59375 43.394531 -27.457031 41.75 -25.1875 C 40.101562 -22.914062 39.28125 -19.816406 39.28125 -15.890625 C 39.28125 -12.066406 40.722656 -8.660156 43.609375 -5.671875 C 46.503906 -2.691406 50.269531 -1.203125 54.90625 -1.203125 Z M 54.90625 -1.203125 "/></g></g></g><g fill="#32120e" fill-opacity="0.4"><g transform="translate(120.692788, 297.400833)"><g><path d="M 27.65625 1.734375 C 20.082031 1.734375 13.976562 -0.398438 9.34375 -4.671875 C 4.71875 -8.953125 2.40625 -14.609375 2.40625 -21.640625 C 2.40625 -28.679688 4.71875 -34.335938 9.34375 -38.609375 C 13.976562 -42.878906 20.082031 -45.015625 27.65625 -45.015625 C 31.570312 -45.015625 35.242188 -44.191406 38.671875 -42.546875 C 42.097656 -40.898438 44.660156 -38.875 46.359375 -36.46875 L 47.828125 -36.46875 L 44.359375 -56.640625 C 43.460938 -61.535156 41.722656 -65.34375 39.140625 -68.0625 C 36.554688 -70.78125 33.171875 -72.140625 28.984375 -72.140625 C 25.691406 -72.140625 23.109375 -71.335938 21.234375 -69.734375 C 19.367188 -68.128906 18.4375 -66.035156 18.4375 -63.453125 C 18.4375 -61.234375 19.148438 -59.476562 20.578125 -58.1875 C 22.003906 -56.894531 23.648438 -56.25 25.515625 -56.25 C 27.566406 -56.25 29.238281 -56.78125 30.53125 -57.84375 C 31.820312 -58.914062 32.242188 -60.296875 31.796875 -61.984375 L 33.265625 -62.25 C 33.710938 -61.71875 34.023438 -61.050781 34.203125 -60.25 C 34.378906 -59.445312 34.46875 -58.691406 34.46875 -57.984375 C 34.46875 -55.304688 33.441406 -52.851562 31.390625 -50.625 C 29.347656 -48.40625 26.5 -47.296875 22.84375 -47.296875 C 19.195312 -47.296875 16.054688 -48.472656 13.421875 -50.828125 C 10.796875 -53.191406 9.484375 -56.066406 9.484375 -59.453125 C 9.484375 -62.472656 10.570312 -65.164062 12.75 -67.53125 C 14.9375 -69.894531 17.851562 -71.765625 21.5 -73.140625 C 25.15625 -74.523438 29.253906 -75.21875 33.796875 -75.21875 C 43.328125 -75.21875 50.765625 -72.8125 56.109375 -68 C 61.453125 -63.1875 64.878906 -56.550781 66.390625 -48.09375 L 71.078125 -21.109375 C 71.609375 -18.078125 72.429688 -15.625 73.546875 -13.75 C 74.660156 -11.882812 76.195312 -10.953125 78.15625 -10.953125 C 79.488281 -10.953125 80.507812 -11.421875 81.21875 -12.359375 C 81.9375 -13.296875 82.472656 -14.472656 82.828125 -15.890625 L 84.171875 -15.890625 C 83.804688 -11.085938 82.441406 -6.945312 80.078125 -3.46875 C 77.722656 0 74.234375 1.734375 69.609375 1.734375 C 64.878906 1.734375 61.085938 0.15625 58.234375 -3 C 55.390625 -6.164062 53.566406 -10.066406 52.765625 -14.703125 L 51.296875 -14.703125 C 49.867188 -9.890625 47.019531 -5.945312 42.75 -2.875 C 38.476562 0.195312 33.445312 1.734375 27.65625 1.734375 Z M 36.609375 -7.078125 C 40.523438 -7.078125 43.773438 -8.566406 46.359375 -11.546875 C 48.941406 -14.535156 50.234375 -18.300781 50.234375 -22.84375 C 50.234375 -27.300781 48.941406 -31.019531 46.359375 -34 C 43.773438 -36.976562 40.523438 -38.46875 36.609375 -38.46875 C 32.503906 -38.46875 29.207031 -37.039062 26.71875 -34.1875 C 24.226562 -31.34375 22.984375 -27.5625 22.984375 -22.84375 C 22.984375 -18.207031 24.226562 -14.421875 26.71875 -11.484375 C 29.207031 -8.546875 32.503906 -7.078125 36.609375 -7.078125 Z M 36.609375 -7.078125 "/></g></g></g><g fill="#32120e" fill-opacity="0.4"><g transform="translate(204.046292, 297.400833)"><g><path d="M 25.515625 1.734375 C 19.816406 1.734375 15.40625 -0.113281 12.28125 -3.8125 C 9.164062 -7.507812 7.609375 -12.160156 7.609375 -17.765625 L 7.609375 -69.609375 C 7.609375 -74.679688 7.382812 -78.726562 6.9375 -81.75 C 6.5 -84.78125 5.945312 -87.097656 5.28125 -88.703125 C 4.613281 -90.304688 3.878906 -91.46875 3.078125 -92.1875 L 3.078125 -93.515625 C 7.265625 -93.691406 11.582031 -94.289062 16.03125 -95.3125 C 20.488281 -96.34375 24.1875 -97.835938 27.125 -99.796875 L 28.453125 -99.796875 L 28.453125 -21.515625 C 28.546875 -18.390625 29.101562 -15.847656 30.125 -13.890625 C 31.144531 -11.929688 32.632812 -10.953125 34.59375 -10.953125 C 35.9375 -10.953125 37.03125 -11.441406 37.875 -12.421875 C 38.71875 -13.398438 39.273438 -14.601562 39.546875 -16.03125 L 40.875 -15.765625 C 40.34375 -10.867188 38.894531 -6.726562 36.53125 -3.34375 C 34.175781 0.0390625 30.503906 1.734375 25.515625 1.734375 Z M 25.515625 1.734375 "/></g></g></g><g fill="#f7de32" fill-opacity="1"><g transform="translate(18.326421, 294.684606)"><g><path d="M 58.921875 1.734375 C 52.953125 1.734375 47.785156 0.421875 43.421875 -2.203125 C 39.054688 -4.828125 36.113281 -8.859375 34.59375 -14.296875 L 33.40625 -14.296875 L 33.40625 0 L 3.078125 0 L 3.078125 -1.609375 C 4.492188 -3.296875 5.710938 -7.097656 6.734375 -13.015625 C 7.765625 -18.941406 8.28125 -26.847656 8.28125 -36.734375 L 8.28125 -56.640625 C 8.28125 -66.617188 7.765625 -74.566406 6.734375 -80.484375 C 5.710938 -86.410156 4.492188 -90.21875 3.078125 -91.90625 L 3.078125 -93.515625 L 58.921875 -93.515625 C 66.484375 -93.515625 72.113281 -92.203125 75.8125 -89.578125 C 79.507812 -86.953125 81.359375 -83.546875 81.359375 -79.359375 C 81.359375 -76.421875 80.332031 -73.945312 78.28125 -71.9375 C 76.238281 -69.9375 73.523438 -68.421875 70.140625 -67.390625 C 66.753906 -66.367188 63.054688 -65.859375 59.046875 -65.859375 L 55.96875 -65.859375 L 55.96875 -64.265625 L 58.921875 -64.265625 C 66.046875 -64.265625 72.5 -62.972656 78.28125 -60.390625 C 84.070312 -57.804688 88.679688 -54.128906 92.109375 -49.359375 C 95.535156 -44.597656 97.25 -38.921875 97.25 -32.328125 C 97.25 -26.179688 95.867188 -20.523438 93.109375 -15.359375 C 90.347656 -10.191406 86.140625 -6.050781 80.484375 -2.9375 C 74.828125 0.175781 67.640625 1.734375 58.921875 1.734375 Z M 33.53125 -66.65625 L 43.28125 -66.65625 C 47.289062 -66.65625 50.363281 -67.789062 52.5 -70.0625 C 54.632812 -72.34375 55.703125 -75.128906 55.703125 -78.421875 C 55.703125 -81.535156 54.945312 -84.335938 53.4375 -86.828125 C 51.925781 -89.328125 49.476562 -90.578125 46.09375 -90.578125 L 33.53125 -90.578125 Z M 54.90625 -1.203125 C 59.976562 -1.203125 64.316406 -3.453125 67.921875 -7.953125 C 71.535156 -12.453125 73.34375 -18.707031 73.34375 -26.71875 C 73.34375 -30.90625 72.738281 -35.15625 71.53125 -39.46875 C 70.332031 -43.789062 68.578125 -47.773438 66.265625 -51.421875 C 63.953125 -55.078125 61.125 -58.019531 57.78125 -60.25 C 54.4375 -62.476562 50.582031 -63.59375 46.21875 -63.59375 L 33.40625 -63.59375 L 33.40625 -28.453125 L 34.46875 -28.453125 C 35.175781 -32.191406 36.734375 -35.195312 39.140625 -37.46875 C 41.546875 -39.738281 44.265625 -40.875 47.296875 -40.875 C 50.234375 -40.875 52.632812 -40.140625 54.5 -38.671875 C 56.375 -37.203125 57.78125 -35.285156 58.71875 -32.921875 C 59.65625 -30.566406 60.125 -28.054688 60.125 -25.390625 C 60.125 -24.140625 59.921875 -22.597656 59.515625 -20.765625 C 59.117188 -18.941406 58.695312 -17.675781 58.25 -16.96875 L 56.78125 -16.96875 C 56.957031 -18.65625 56.773438 -20.390625 56.234375 -22.171875 C 55.703125 -23.953125 54.789062 -25.46875 53.5 -26.71875 C 52.207031 -27.96875 50.492188 -28.59375 48.359375 -28.59375 C 45.597656 -28.59375 43.394531 -27.457031 41.75 -25.1875 C 40.101562 -22.914062 39.28125 -19.816406 39.28125 -15.890625 C 39.28125 -12.066406 40.722656 -8.660156 43.609375 -5.671875 C 46.503906 -2.691406 50.269531 -1.203125 54.90625 -1.203125 Z M 54.90625 -1.203125 "/></g></g></g><g fill="#f7de32" fill-opacity="1"><g transform="translate(117.97656, 294.684606)"><g><path d="M 27.65625 1.734375 C 20.082031 1.734375 13.976562 -0.398438 9.34375 -4.671875 C 4.71875 -8.953125 2.40625 -14.609375 2.40625 -21.640625 C 2.40625 -28.679688 4.71875 -34.335938 9.34375 -38.609375 C 13.976562 -42.878906 20.082031 -45.015625 27.65625 -45.015625 C 31.570312 -45.015625 35.242188 -44.191406 38.671875 -42.546875 C 42.097656 -40.898438 44.660156 -38.875 46.359375 -36.46875 L 47.828125 -36.46875 L 44.359375 -56.640625 C 43.460938 -61.535156 41.722656 -65.34375 39.140625 -68.0625 C 36.554688 -70.78125 33.171875 -72.140625 28.984375 -72.140625 C 25.691406 -72.140625 23.109375 -71.335938 21.234375 -69.734375 C 19.367188 -68.128906 18.4375 -66.035156 18.4375 -63.453125 C 18.4375 -61.234375 19.148438 -59.476562 20.578125 -58.1875 C 22.003906 -56.894531 23.648438 -56.25 25.515625 -56.25 C 27.566406 -56.25 29.238281 -56.78125 30.53125 -57.84375 C 31.820312 -58.914062 32.242188 -60.296875 31.796875 -61.984375 L 33.265625 -62.25 C 33.710938 -61.71875 34.023438 -61.050781 34.203125 -60.25 C 34.378906 -59.445312 34.46875 -58.691406 34.46875 -57.984375 C 34.46875 -55.304688 33.441406 -52.851562 31.390625 -50.625 C 29.347656 -48.40625 26.5 -47.296875 22.84375 -47.296875 C 19.195312 -47.296875 16.054688 -48.472656 13.421875 -50.828125 C 10.796875 -53.191406 9.484375 -56.066406 9.484375 -59.453125 C 9.484375 -62.472656 10.570312 -65.164062 12.75 -67.53125 C 14.9375 -69.894531 17.851562 -71.765625 21.5 -73.140625 C 25.15625 -74.523438 29.253906 -75.21875 33.796875 -75.21875 C 43.328125 -75.21875 50.765625 -72.8125 56.109375 -68 C 61.453125 -63.1875 64.878906 -56.550781 66.390625 -48.09375 L 71.078125 -21.109375 C 71.609375 -18.078125 72.429688 -15.625 73.546875 -13.75 C 74.660156 -11.882812 76.195312 -10.953125 78.15625 -10.953125 C 79.488281 -10.953125 80.507812 -11.421875 81.21875 -12.359375 C 81.9375 -13.296875 82.472656 -14.472656 82.828125 -15.890625 L 84.171875 -15.890625 C 83.804688 -11.085938 82.441406 -6.945312 80.078125 -3.46875 C 77.722656 0 74.234375 1.734375 69.609375 1.734375 C 64.878906 1.734375 61.085938 0.15625 58.234375 -3 C 55.390625 -6.164062 53.566406 -10.066406 52.765625 -14.703125 L 51.296875 -14.703125 C 49.867188 -9.890625 47.019531 -5.945312 42.75 -2.875 C 38.476562 0.195312 33.445312 1.734375 27.65625 1.734375 Z M 36.609375 -7.078125 C 40.523438 -7.078125 43.773438 -8.566406 46.359375 -11.546875 C 48.941406 -14.535156 50.234375 -18.300781 50.234375 -22.84375 C 50.234375 -27.300781 48.941406 -31.019531 46.359375 -34 C 43.773438 -36.976562 40.523438 -38.46875 36.609375 -38.46875 C 32.503906 -38.46875 29.207031 -37.039062 26.71875 -34.1875 C 24.226562 -31.34375 22.984375 -27.5625 22.984375 -22.84375 C 22.984375 -18.207031 24.226562 -14.421875 26.71875 -11.484375 C 29.207031 -8.546875 32.503906 -7.078125 36.609375 -7.078125 Z M 36.609375 -7.078125 "/></g></g></g><g fill="#f7de32" fill-opacity="1"><g transform="translate(201.330064, 294.684606)"><g><path d="M 25.515625 1.734375 C 19.816406 1.734375 15.40625 -0.113281 12.28125 -3.8125 C 9.164062 -7.507812 7.609375 -12.160156 7.609375 -17.765625 L 7.609375 -69.609375 C 7.609375 -74.679688 7.382812 -78.726562 6.9375 -81.75 C 6.5 -84.78125 5.945312 -87.097656 5.28125 -88.703125 C 4.613281 -90.304688 3.878906 -91.46875 3.078125 -92.1875 L 3.078125 -93.515625 C 7.265625 -93.691406 11.582031 -94.289062 16.03125 -95.3125 C 20.488281 -96.34375 24.1875 -97.835938 27.125 -99.796875 L 28.453125 -99.796875 L 28.453125 -21.515625 C 28.546875 -18.390625 29.101562 -15.847656 30.125 -13.890625 C 31.144531 -11.929688 32.632812 -10.953125 34.59375 -10.953125 C 35.9375 -10.953125 37.03125 -11.441406 37.875 -12.421875 C 38.71875 -13.398438 39.273438 -14.601562 39.546875 -16.03125 L 40.875 -15.765625 C 40.34375 -10.867188 38.894531 -6.726562 36.53125 -3.34375 C 34.175781 0.0390625 30.503906 1.734375 25.515625 1.734375 Z M 25.515625 1.734375 "/></g></g></g><g fill="#32120e" fill-opacity="0.4"><g transform="translate(246.218269, 297.400833)"><g/></g></g><g fill="#32120e" fill-opacity="0.4"><g transform="translate(285.490573, 297.400833)"><g/></g></g><g fill="#32120e" fill-opacity="0.4"><g transform="translate(324.762877, 297.400833)"><g/></g></g><g fill="#f7de32" fill-opacity="1"><g transform="translate(243.50204, 294.684606)"><g/></g></g><g fill="#f7de32" fill-opacity="1"><g transform="translate(282.774344, 294.684606)"><g/></g></g><g fill="#f7de32" fill-opacity="1"><g transform="translate(322.046648, 294.684606)"><g/></g></g><g fill="#32120e" fill-opacity="0.4"><g transform="translate(364.041583, 297.400833)"><g><path d="M 3.34375 0 L 3.34375 -1.46875 C 4.582031 -3.164062 5.601562 -6.972656 6.40625 -12.890625 C 7.207031 -18.816406 7.609375 -26.632812 7.609375 -36.34375 L 7.609375 -45.28125 C 7.609375 -52.945312 7.160156 -58.378906 6.265625 -61.578125 C 5.378906 -64.785156 4.316406 -66.925781 3.078125 -68 L 3.078125 -69.328125 C 7.265625 -69.515625 11.601562 -70.097656 16.09375 -71.078125 C 20.59375 -72.054688 24.269531 -73.523438 27.125 -75.484375 L 28.59375 -75.484375 L 28.59375 -59.71875 L 30.0625 -59.71875 C 31.84375 -64.707031 34.847656 -68.535156 39.078125 -71.203125 C 43.304688 -73.878906 48.226562 -75.21875 53.84375 -75.21875 C 59.445312 -75.21875 64.296875 -73.835938 68.390625 -71.078125 C 72.492188 -68.316406 75.65625 -64.617188 77.875 -59.984375 C 80.101562 -55.347656 81.21875 -50.226562 81.21875 -44.625 L 81.21875 -35.9375 C 81.21875 -26.226562 81.640625 -18.476562 82.484375 -12.6875 C 83.335938 -6.90625 84.34375 -3.164062 85.5 -1.46875 L 85.5 0 L 55.84375 0 L 55.84375 -1.46875 C 57.09375 -3.164062 58.117188 -6.90625 58.921875 -12.6875 C 59.722656 -18.476562 60.125 -26.226562 60.125 -35.9375 L 60.125 -46.359375 C 60.125 -51.429688 58.675781 -55.726562 55.78125 -59.25 C 52.882812 -62.769531 49.078125 -64.53125 44.359375 -64.53125 C 39.628906 -64.53125 35.816406 -62.8125 32.921875 -59.375 C 30.035156 -55.945312 28.59375 -51.648438 28.59375 -46.484375 L 28.59375 -35.9375 C 28.59375 -26.226562 29.035156 -18.476562 29.921875 -12.6875 C 30.816406 -6.90625 31.84375 -3.164062 33 -1.46875 L 33 0 Z M 3.34375 0 "/></g></g></g><g fill="#32120e" fill-opacity="0.4"><g transform="translate(452.604692, 297.400833)"><g><path d="M 46.09375 1.734375 C 40.125 1.648438 34.507812 0.695312 29.25 -1.125 C 24 -2.957031 19.367188 -5.566406 15.359375 -8.953125 C 11.359375 -12.335938 8.195312 -16.367188 5.875 -21.046875 C 3.5625 -25.722656 2.40625 -30.953125 2.40625 -36.734375 C 2.40625 -44.484375 4.226562 -51.253906 7.875 -57.046875 C 11.53125 -62.835938 16.5 -67.3125 22.78125 -70.46875 C 29.0625 -73.632812 36.117188 -75.21875 43.953125 -75.21875 C 48.941406 -75.21875 53.90625 -74.457031 58.84375 -72.9375 C 63.789062 -71.425781 67.910156 -69.378906 71.203125 -66.796875 L 66 -50.234375 L 64.796875 -50.234375 C 63.546875 -57.085938 61.207031 -62.472656 57.78125 -66.390625 C 54.351562 -70.316406 50.367188 -72.28125 45.828125 -72.28125 C 41.722656 -72.28125 38.023438 -70.675781 34.734375 -67.46875 C 31.441406 -64.257812 28.8125 -60.050781 26.84375 -54.84375 C 24.882812 -49.632812 23.90625 -44 23.90625 -37.9375 C 23.90625 -30.988281 25.128906 -24.773438 27.578125 -19.296875 C 30.035156 -13.828125 33.3125 -9.488281 37.40625 -6.28125 C 41.5 -3.070312 46.085938 -1.46875 51.171875 -1.46875 C 56.242188 -1.46875 60.113281 -2.710938 62.78125 -5.203125 C 65.457031 -7.703125 66.796875 -10.820312 66.796875 -14.5625 C 66.796875 -17.675781 65.90625 -20.125 64.125 -21.90625 C 62.34375 -23.6875 60.207031 -24.578125 57.71875 -24.578125 C 55.039062 -24.578125 52.988281 -23.6875 51.5625 -21.90625 C 50.144531 -20.125 49.65625 -18.253906 50.09375 -16.296875 L 48.765625 -16.03125 C 48.140625 -16.832031 47.625 -17.96875 47.21875 -19.4375 C 46.820312 -20.90625 46.625 -22.21875 46.625 -23.375 C 46.625 -27.476562 47.984375 -31.019531 50.703125 -34 C 53.421875 -36.976562 57.316406 -38.46875 62.390625 -38.46875 C 65.503906 -38.46875 68.285156 -37.710938 70.734375 -36.203125 C 73.179688 -34.691406 75.117188 -32.664062 76.546875 -30.125 C 77.972656 -27.582031 78.6875 -24.753906 78.6875 -21.640625 C 78.6875 -16.742188 77.21875 -12.535156 74.28125 -9.015625 C 71.34375 -5.492188 67.398438 -2.820312 62.453125 -1 C 57.515625 0.820312 52.0625 1.734375 46.09375 1.734375 Z M 46.09375 1.734375 "/></g></g></g><g fill="#32120e" fill-opacity="0.4"><g transform="translate(533.687349, 297.400833)"><g><path d="M 47.828125 1.734375 C 42.128906 1.734375 36.5625 0.890625 31.125 -0.796875 C 25.695312 -2.492188 20.820312 -4.96875 16.5 -8.21875 C 12.175781 -11.46875 8.742188 -15.492188 6.203125 -20.296875 C 3.671875 -25.109375 2.40625 -30.585938 2.40625 -36.734375 C 2.40625 -44.484375 4.140625 -51.253906 7.609375 -57.046875 C 11.085938 -62.835938 15.988281 -67.3125 22.3125 -70.46875 C 28.632812 -73.632812 36.070312 -75.21875 44.625 -75.21875 C 55.664062 -75.21875 63.878906 -73.34375 69.265625 -69.59375 C 74.648438 -65.851562 77.34375 -61.269531 77.34375 -55.84375 C 77.34375 -51.832031 75.804688 -48.601562 72.734375 -46.15625 C 69.671875 -43.707031 65.554688 -41.925781 60.390625 -40.8125 C 55.222656 -39.695312 49.453125 -39.117188 43.078125 -39.078125 C 36.710938 -39.035156 30.234375 -39.457031 23.640625 -40.34375 C 23.554688 -39.988281 23.515625 -39.410156 23.515625 -38.609375 C 23.515625 -31.484375 24.738281 -25.09375 27.1875 -19.4375 C 29.632812 -13.78125 33.0625 -9.347656 37.46875 -6.140625 C 41.882812 -2.941406 46.984375 -1.34375 52.765625 -1.34375 C 57.484375 -1.34375 61.175781 -2.5 63.84375 -4.8125 C 66.519531 -7.125 67.859375 -10.0625 67.859375 -13.625 C 67.859375 -16.5625 67.035156 -18.851562 65.390625 -20.5 C 63.742188 -22.15625 61.765625 -22.984375 59.453125 -22.984375 C 56.867188 -22.984375 54.882812 -22.15625 53.5 -20.5 C 52.125 -18.851562 51.660156 -17.140625 52.109375 -15.359375 L 50.625 -15.234375 C 50.007812 -15.941406 49.519531 -17.03125 49.15625 -18.5 C 48.800781 -19.96875 48.625 -21.238281 48.625 -22.3125 C 48.625 -26.226562 49.957031 -29.609375 52.625 -32.453125 C 55.300781 -35.304688 59.085938 -36.734375 63.984375 -36.734375 C 68.617188 -36.734375 72.382812 -35.148438 75.28125 -31.984375 C 78.175781 -28.828125 79.625 -25.023438 79.625 -20.578125 C 79.625 -16.390625 78.351562 -12.601562 75.8125 -9.21875 C 73.269531 -5.832031 69.617188 -3.160156 64.859375 -1.203125 C 60.097656 0.753906 54.421875 1.734375 47.828125 1.734375 Z M 23.640625 -43.015625 C 30.679688 -42.484375 37.050781 -42.660156 42.75 -43.546875 C 48.445312 -44.441406 52.960938 -46.113281 56.296875 -48.5625 C 59.640625 -51.007812 61.3125 -54.148438 61.3125 -57.984375 C 61.226562 -61.898438 59.960938 -65.257812 57.515625 -68.0625 C 55.066406 -70.875 51.125 -72.28125 45.6875 -72.28125 C 39.894531 -72.28125 34.925781 -69.648438 30.78125 -64.390625 C 26.644531 -59.140625 24.265625 -52.015625 23.640625 -43.015625 Z M 23.640625 -43.015625 "/></g></g></g><g fill="#f7de32" fill-opacity="1"><g transform="translate(361.325354, 294.684606)"><g><path d="M 3.34375 0 L 3.34375 -1.46875 C 4.582031 -3.164062 5.601562 -6.972656 6.40625 -12.890625 C 7.207031 -18.816406 7.609375 -26.632812 7.609375 -36.34375 L 7.609375 -45.28125 C 7.609375 -52.945312 7.160156 -58.378906 6.265625 -61.578125 C 5.378906 -64.785156 4.316406 -66.925781 3.078125 -68 L 3.078125 -69.328125 C 7.265625 -69.515625 11.601562 -70.097656 16.09375 -71.078125 C 20.59375 -72.054688 24.269531 -73.523438 27.125 -75.484375 L 28.59375 -75.484375 L 28.59375 -59.71875 L 30.0625 -59.71875 C 31.84375 -64.707031 34.847656 -68.535156 39.078125 -71.203125 C 43.304688 -73.878906 48.226562 -75.21875 53.84375 -75.21875 C 59.445312 -75.21875 64.296875 -73.835938 68.390625 -71.078125 C 72.492188 -68.316406 75.65625 -64.617188 77.875 -59.984375 C 80.101562 -55.347656 81.21875 -50.226562 81.21875 -44.625 L 81.21875 -35.9375 C 81.21875 -26.226562 81.640625 -18.476562 82.484375 -12.6875 C 83.335938 -6.90625 84.34375 -3.164062 85.5 -1.46875 L 85.5 0 L 55.84375 0 L 55.84375 -1.46875 C 57.09375 -3.164062 58.117188 -6.90625 58.921875 -12.6875 C 59.722656 -18.476562 60.125 -26.226562 60.125 -35.9375 L 60.125 -46.359375 C 60.125 -51.429688 58.675781 -55.726562 55.78125 -59.25 C 52.882812 -62.769531 49.078125 -64.53125 44.359375 -64.53125 C 39.628906 -64.53125 35.816406 -62.8125 32.921875 -59.375 C 30.035156 -55.945312 28.59375 -51.648438 28.59375 -46.484375 L 28.59375 -35.9375 C 28.59375 -26.226562 29.035156 -18.476562 29.921875 -12.6875 C 30.816406 -6.90625 31.84375 -3.164062 33 -1.46875 L 33 0 Z M 3.34375 0 "/></g></g></g><g fill="#f7de32" fill-opacity="1"><g transform="translate(449.888464, 294.684606)"><g><path d="M 46.09375 1.734375 C 40.125 1.648438 34.507812 0.695312 29.25 -1.125 C 24 -2.957031 19.367188 -5.566406 15.359375 -8.953125 C 11.359375 -12.335938 8.195312 -16.367188 5.875 -21.046875 C 3.5625 -25.722656 2.40625 -30.953125 2.40625 -36.734375 C 2.40625 -44.484375 4.226562 -51.253906 7.875 -57.046875 C 11.53125 -62.835938 16.5 -67.3125 22.78125 -70.46875 C 29.0625 -73.632812 36.117188 -75.21875 43.953125 -75.21875 C 48.941406 -75.21875 53.90625 -74.457031 58.84375 -72.9375 C 63.789062 -71.425781 67.910156 -69.378906 71.203125 -66.796875 L 66 -50.234375 L 64.796875 -50.234375 C 63.546875 -57.085938 61.207031 -62.472656 57.78125 -66.390625 C 54.351562 -70.316406 50.367188 -72.28125 45.828125 -72.28125 C 41.722656 -72.28125 38.023438 -70.675781 34.734375 -67.46875 C 31.441406 -64.257812 28.8125 -60.050781 26.84375 -54.84375 C 24.882812 -49.632812 23.90625 -44 23.90625 -37.9375 C 23.90625 -30.988281 25.128906 -24.773438 27.578125 -19.296875 C 30.035156 -13.828125 33.3125 -9.488281 37.40625 -6.28125 C 41.5 -3.070312 46.085938 -1.46875 51.171875 -1.46875 C 56.242188 -1.46875 60.113281 -2.710938 62.78125 -5.203125 C 65.457031 -7.703125 66.796875 -10.820312 66.796875 -14.5625 C 66.796875 -17.675781 65.90625 -20.125 64.125 -21.90625 C 62.34375 -23.6875 60.207031 -24.578125 57.71875 -24.578125 C 55.039062 -24.578125 52.988281 -23.6875 51.5625 -21.90625 C 50.144531 -20.125 49.65625 -18.253906 50.09375 -16.296875 L 48.765625 -16.03125 C 48.140625 -16.832031 47.625 -17.96875 47.21875 -19.4375 C 46.820312 -20.90625 46.625 -22.21875 46.625 -23.375 C 46.625 -27.476562 47.984375 -31.019531 50.703125 -34 C 53.421875 -36.976562 57.316406 -38.46875 62.390625 -38.46875 C 65.503906 -38.46875 68.285156 -37.710938 70.734375 -36.203125 C 73.179688 -34.691406 75.117188 -32.664062 76.546875 -30.125 C 77.972656 -27.582031 78.6875 -24.753906 78.6875 -21.640625 C 78.6875 -16.742188 77.21875 -12.535156 74.28125 -9.015625 C 71.34375 -5.492188 67.398438 -2.820312 62.453125 -1 C 57.515625 0.820312 52.0625 1.734375 46.09375 1.734375 Z M 46.09375 1.734375 "/></g></g></g><g fill="#f7de32" fill-opacity="1"><g transform="translate(530.971121, 294.684606)"><g><path d="M 47.828125 1.734375 C 42.128906 1.734375 36.5625 0.890625 31.125 -0.796875 C 25.695312 -2.492188 20.820312 -4.96875 16.5 -8.21875 C 12.175781 -11.46875 8.742188 -15.492188 6.203125 -20.296875 C 3.671875 -25.109375 2.40625 -30.585938 2.40625 -36.734375 C 2.40625 -44.484375 4.140625 -51.253906 7.609375 -57.046875 C 11.085938 -62.835938 15.988281 -67.3125 22.3125 -70.46875 C 28.632812 -73.632812 36.070312 -75.21875 44.625 -75.21875 C 55.664062 -75.21875 63.878906 -73.34375 69.265625 -69.59375 C 74.648438 -65.851562 77.34375 -61.269531 77.34375 -55.84375 C 77.34375 -51.832031 75.804688 -48.601562 72.734375 -46.15625 C 69.671875 -43.707031 65.554688 -41.925781 60.390625 -40.8125 C 55.222656 -39.695312 49.453125 -39.117188 43.078125 -39.078125 C 36.710938 -39.035156 30.234375 -39.457031 23.640625 -40.34375 C 23.554688 -39.988281 23.515625 -39.410156 23.515625 -38.609375 C 23.515625 -31.484375 24.738281 -25.09375 27.1875 -19.4375 C 29.632812 -13.78125 33.0625 -9.347656 37.46875 -6.140625 C 41.882812 -2.941406 46.984375 -1.34375 52.765625 -1.34375 C 57.484375 -1.34375 61.175781 -2.5 63.84375 -4.8125 C 66.519531 -7.125 67.859375 -10.0625 67.859375 -13.625 C 67.859375 -16.5625 67.035156 -18.851562 65.390625 -20.5 C 63.742188 -22.15625 61.765625 -22.984375 59.453125 -22.984375 C 56.867188 -22.984375 54.882812 -22.15625 53.5 -20.5 C 52.125 -18.851562 51.660156 -17.140625 52.109375 -15.359375 L 50.625 -15.234375 C 50.007812 -15.941406 49.519531 -17.03125 49.15625 -18.5 C 48.800781 -19.96875 48.625 -21.238281 48.625 -22.3125 C 48.625 -26.226562 49.957031 -29.609375 52.625 -32.453125 C 55.300781 -35.304688 59.085938 -36.734375 63.984375 -36.734375 C 68.617188 -36.734375 72.382812 -35.148438 75.28125 -31.984375 C 78.175781 -28.828125 79.625 -25.023438 79.625 -20.578125 C 79.625 -16.390625 78.351562 -12.601562 75.8125 -9.21875 C 73.269531 -5.832031 69.617188 -3.160156 64.859375 -1.203125 C 60.097656 0.753906 54.421875 1.734375 47.828125 1.734375 Z M 23.640625 -43.015625 C 30.679688 -42.484375 37.050781 -42.660156 42.75 -43.546875 C 48.445312 -44.441406 52.960938 -46.113281 56.296875 -48.5625 C 59.640625 -51.007812 61.3125 -54.148438 61.3125 -57.984375 C 61.226562 -61.898438 59.960938 -65.257812 57.515625 -68.0625 C 55.066406 -70.875 51.125 -72.28125 45.6875 -72.28125 C 39.894531 -72.28125 34.925781 -69.648438 30.78125 -64.390625 C 26.644531 -59.140625 24.265625 -52.015625 23.640625 -43.015625 Z M 23.640625 -43.015625 "/></g></g></g><g clip-path="url(#c1214923fa)"><path fill="#ff3131" d="M 305.664062 262.207031 C 258.828125 334.289062 229.410156 243.816406 305.214844 260.832031 C 224.597656 239.574219 303.816406 183.085938 306.386719 259.984375 C 310.554688 174.277344 383.363281 243.816406 307.558594 260.832031 C 389.398438 246.386719 353.96875 334.289062 307.109375 262.207031 C 351.449219 330.722656 258.804688 334.289062 305.664062 262.207031 Z M 305.664062 262.207031 " fill-opacity="1" fill-rule="nonzero"/></g><g fill="#f7de32" fill-opacity="1"><g transform="translate(632.778649, 216.336103)"><g><path d="M 3.046875 -3.65625 L -23.875 -26.078125 L -21.046875 -29.46875 L 2.859375 -9.5625 L 12.65625 -21.328125 L 15.671875 -18.8125 Z M 3.046875 -3.65625 "/></g></g></g><g fill="#f7de32" fill-opacity="1"><g transform="translate(652.454134, 194.758549)"><g><path d="M 12.453125 -7.671875 L 1.671875 -1.03125 L 0.34375 -3.203125 L 3.34375 -6.15625 L -11.328125 -30.015625 L -15.34375 -28.703125 L -16.6875 -30.859375 L -5.90625 -37.5 L -4.5625 -35.34375 L -7.5625 -32.328125 L 7.109375 -8.46875 L 11.125 -9.84375 Z M 12.453125 -7.671875 "/></g></g></g><g fill="#f7de32" fill-opacity="1"><g transform="translate(669.718253, 183.995779)"><g><path d="M 8.9375 -2.078125 L 4.640625 -1.078125 L -3.296875 -35.203125 L 15.765625 -39.625 L 16.65625 -35.84375 L 1.890625 -32.421875 L 4.703125 -20.328125 L 18.5625 -23.546875 L 19.4375 -19.765625 L 5.578125 -16.546875 Z M 8.9375 -2.078125 "/></g></g></g><g fill="#f7de32" fill-opacity="1"><g transform="translate(697.565366, 177.94115)"><g><path d="M 24.03125 3.765625 L 4.703125 0.734375 L 10.125 -33.875 L 29.453125 -30.84375 L 28.859375 -27.015625 L 13.890625 -29.359375 L 12.1875 -18.546875 L 26.296875 -16.34375 L 25.703125 -12.5625 L 11.59375 -14.765625 L 9.65625 -2.40625 L 24.625 -0.0625 Z M 24.03125 3.765625 "/></g></g></g><g clip-path="url(#39aa4ad45b)"><path stroke-linecap="butt" transform="matrix(2.180936, 0, 0, 2.180936, 629.83997, 153.172505)" fill="none" stroke-linejoin="miter" d="M 21.381958 68.424669 L 21.381958 67.672412 C 22.087647 66.372081 22.567658 63.481264 22.823784 58.999961 L 0.184424 58.999961 L -0.123643 58.247703 L 24.711591 24.417622 L 29.547531 24.417622 L 29.547531 55.668536 L 36.65457 55.668536 L 35.839625 58.999961 L 29.732013 58.999961 C 29.986347 63.481264 30.473523 66.372081 31.189959 67.672412 L 31.189959 68.424669 Z M 4.282435 55.668536 L 23.008266 55.668536 L 23.008266 30.267317 L 22.639302 30.267317 L 4.144521 55.285243 Z M 4.282435 55.668536 " stroke="#43d0c7" stroke-width="4.715588" stroke-opacity="1" stroke-miterlimit="4"/></g><g fill="#43d0c7" fill-opacity="1"><g transform="translate(629.83997, 281.847742)"><g><path d="M 46.609375 20.5625 L 46.609375 18.921875 C 48.171875 16.085938 49.222656 9.78125 49.765625 0 L 0.40625 0 L -0.28125 -1.640625 L 53.890625 -75.40625 L 64.4375 -75.40625 L 64.4375 -7.265625 L 79.9375 -7.265625 L 78.15625 0 L 64.859375 0 C 65.398438 9.78125 66.445312 16.085938 68 18.921875 L 68 20.5625 Z M 9.328125 -7.265625 L 50.1875 -7.265625 L 50.1875 -62.65625 L 49.359375 -62.65625 L 9.046875 -8.09375 Z M 9.328125 -7.265625 "/></g></g></g></svg>