<svg xmlns="http://www.w3.org/2000/svg" xmlns:xlink="http://www.w3.org/1999/xlink" width="712" zoomAndPan="magnify" viewBox="0 0 534 732.749995" height="977" preserveAspectRatio="xMidYMid meet" version="1.0"><defs><g/><clipPath id="34a4ff69e0"><path d="M 170.125 352.835938 L 230.105469 352.835938 L 230.105469 412.066406 L 170.125 412.066406 Z M 170.125 352.835938 " clip-rule="nonzero"/></clipPath></defs><g fill="#32120e" fill-opacity="0.4"><g transform="translate(7.837189, 403.861579)"><g><path d="M 40.671875 1.203125 C 36.546875 1.203125 32.976562 0.296875 29.96875 -1.515625 C 26.957031 -3.328125 24.929688 -6.113281 23.890625 -9.875 L 23.046875 -9.875 L 23.046875 0 L 2.125 0 L 2.125 -1.109375 C 3.101562 -2.273438 3.945312 -4.898438 4.65625 -8.984375 C 5.363281 -13.078125 5.71875 -18.535156 5.71875 -25.359375 L 5.71875 -39.09375 C 5.71875 -45.976562 5.363281 -51.460938 4.65625 -55.546875 C 3.945312 -59.640625 3.101562 -62.273438 2.125 -63.453125 L 2.125 -64.546875 L 40.671875 -64.546875 C 45.890625 -64.546875 49.773438 -63.640625 52.328125 -61.828125 C 54.878906 -60.015625 56.15625 -57.664062 56.15625 -54.78125 C 56.15625 -52.75 55.445312 -51.039062 54.03125 -49.65625 C 52.625 -48.269531 50.75 -47.222656 48.40625 -46.515625 C 46.070312 -45.816406 43.523438 -45.46875 40.765625 -45.46875 L 38.640625 -45.46875 L 38.640625 -44.359375 L 40.671875 -44.359375 C 45.585938 -44.359375 50.039062 -43.46875 54.03125 -41.6875 C 58.03125 -39.90625 61.210938 -37.367188 63.578125 -34.078125 C 65.953125 -30.785156 67.140625 -26.863281 67.140625 -22.3125 C 67.140625 -18.070312 66.1875 -14.164062 64.28125 -10.59375 C 62.375 -7.03125 59.46875 -4.171875 55.5625 -2.015625 C 51.65625 0.128906 46.691406 1.203125 40.671875 1.203125 Z M 23.140625 -46.015625 L 29.875 -46.015625 C 32.644531 -46.015625 34.765625 -46.796875 36.234375 -48.359375 C 37.710938 -49.929688 38.453125 -51.851562 38.453125 -54.125 C 38.453125 -56.28125 37.925781 -58.21875 36.875 -59.9375 C 35.832031 -61.664062 34.144531 -62.53125 31.8125 -62.53125 L 23.140625 -62.53125 Z M 37.90625 -0.828125 C 41.40625 -0.828125 44.398438 -2.378906 46.890625 -5.484375 C 49.378906 -8.585938 50.625 -12.90625 50.625 -18.4375 C 50.625 -21.332031 50.207031 -24.269531 49.375 -27.25 C 48.550781 -30.226562 47.335938 -32.976562 45.734375 -35.5 C 44.140625 -38.019531 42.1875 -40.046875 39.875 -41.578125 C 37.570312 -43.117188 34.914062 -43.890625 31.90625 -43.890625 L 23.046875 -43.890625 L 23.046875 -19.640625 L 23.796875 -19.640625 C 24.285156 -22.222656 25.359375 -24.296875 27.015625 -25.859375 C 28.679688 -27.429688 30.554688 -28.21875 32.640625 -28.21875 C 34.671875 -28.21875 36.332031 -27.707031 37.625 -26.6875 C 38.914062 -25.675781 39.882812 -24.351562 40.53125 -22.71875 C 41.175781 -21.09375 41.5 -19.359375 41.5 -17.515625 C 41.5 -16.660156 41.359375 -15.601562 41.078125 -14.34375 C 40.804688 -13.082031 40.515625 -12.207031 40.203125 -11.71875 L 39.1875 -11.71875 C 39.3125 -12.882812 39.1875 -14.082031 38.8125 -15.3125 C 38.445312 -16.539062 37.816406 -17.582031 36.921875 -18.4375 C 36.035156 -19.300781 34.859375 -19.734375 33.390625 -19.734375 C 31.484375 -19.734375 29.957031 -18.945312 28.8125 -17.375 C 27.675781 -15.8125 27.109375 -13.675781 27.109375 -10.96875 C 27.109375 -8.332031 28.109375 -5.984375 30.109375 -3.921875 C 32.109375 -1.859375 34.707031 -0.828125 37.90625 -0.828125 Z M 37.90625 -0.828125 "/></g></g></g><g fill="#32120e" fill-opacity="0.4"><g transform="translate(76.622063, 403.861579)"><g><path d="M 19.09375 1.203125 C 13.863281 1.203125 9.648438 -0.269531 6.453125 -3.21875 C 3.253906 -6.175781 1.65625 -10.082031 1.65625 -14.9375 C 1.65625 -19.789062 3.253906 -23.691406 6.453125 -26.640625 C 9.648438 -29.597656 13.863281 -31.078125 19.09375 -31.078125 C 21.789062 -31.078125 24.320312 -30.507812 26.6875 -29.375 C 29.0625 -28.238281 30.832031 -26.835938 32 -25.171875 L 33.015625 -25.171875 L 30.609375 -39.09375 C 29.992188 -42.476562 28.796875 -45.109375 27.015625 -46.984375 C 25.234375 -48.859375 22.898438 -49.796875 20.015625 -49.796875 C 17.734375 -49.796875 15.945312 -49.242188 14.65625 -48.140625 C 13.363281 -47.035156 12.71875 -45.585938 12.71875 -43.796875 C 12.71875 -42.265625 13.207031 -41.050781 14.1875 -40.15625 C 15.175781 -39.269531 16.316406 -38.828125 17.609375 -38.828125 C 19.023438 -38.828125 20.175781 -39.191406 21.0625 -39.921875 C 21.957031 -40.660156 22.253906 -41.617188 21.953125 -42.796875 L 22.96875 -42.96875 C 23.269531 -42.601562 23.484375 -42.144531 23.609375 -41.59375 C 23.734375 -41.039062 23.796875 -40.515625 23.796875 -40.015625 C 23.796875 -38.171875 23.085938 -36.476562 21.671875 -34.9375 C 20.253906 -33.40625 18.285156 -32.640625 15.765625 -32.640625 C 13.242188 -32.640625 11.078125 -33.453125 9.265625 -35.078125 C 7.453125 -36.710938 6.546875 -38.695312 6.546875 -41.03125 C 6.546875 -43.125 7.296875 -44.984375 8.796875 -46.609375 C 10.304688 -48.242188 12.320312 -49.535156 14.84375 -50.484375 C 17.363281 -51.441406 20.191406 -51.921875 23.328125 -51.921875 C 29.910156 -51.921875 35.046875 -50.257812 38.734375 -46.9375 C 42.421875 -43.613281 44.785156 -39.035156 45.828125 -33.203125 L 49.0625 -14.578125 C 49.425781 -12.484375 49.992188 -10.789062 50.765625 -9.5 C 51.535156 -8.207031 52.597656 -7.5625 53.953125 -7.5625 C 54.867188 -7.5625 55.570312 -7.882812 56.0625 -8.53125 C 56.5625 -9.175781 56.929688 -9.988281 57.171875 -10.96875 L 58.09375 -10.96875 C 57.851562 -7.65625 56.914062 -4.796875 55.28125 -2.390625 C 53.65625 0.00390625 51.242188 1.203125 48.046875 1.203125 C 44.785156 1.203125 42.171875 0.113281 40.203125 -2.0625 C 38.234375 -4.25 36.972656 -6.941406 36.421875 -10.140625 L 35.40625 -10.140625 C 34.425781 -6.828125 32.457031 -4.109375 29.5 -1.984375 C 26.550781 0.140625 23.082031 1.203125 19.09375 1.203125 Z M 25.265625 -4.890625 C 27.972656 -4.890625 30.21875 -5.914062 32 -7.96875 C 33.78125 -10.03125 34.671875 -12.628906 34.671875 -15.765625 C 34.671875 -18.835938 33.78125 -21.40625 32 -23.46875 C 30.21875 -25.53125 27.972656 -26.5625 25.265625 -26.5625 C 22.441406 -26.5625 20.164062 -25.578125 18.4375 -23.609375 C 16.71875 -21.640625 15.859375 -19.023438 15.859375 -15.765625 C 15.859375 -12.566406 16.71875 -9.953125 18.4375 -7.921875 C 20.164062 -5.898438 22.441406 -4.890625 25.265625 -4.890625 Z M 25.265625 -4.890625 "/></g></g></g><g fill="#32120e" fill-opacity="0.4"><g transform="translate(134.157962, 403.861579)"><g><path d="M 17.609375 1.203125 C 13.679688 1.203125 10.640625 -0.0703125 8.484375 -2.625 C 6.328125 -5.175781 5.25 -8.390625 5.25 -12.265625 L 5.25 -48.046875 C 5.25 -51.546875 5.09375 -54.34375 4.78125 -56.4375 C 4.476562 -58.53125 4.097656 -60.128906 3.640625 -61.234375 C 3.179688 -62.335938 2.675781 -63.132812 2.125 -63.625 L 2.125 -64.546875 C 5.007812 -64.671875 7.988281 -65.085938 11.0625 -65.796875 C 14.132812 -66.503906 16.6875 -67.535156 18.71875 -68.890625 L 19.640625 -68.890625 L 19.640625 -14.84375 C 19.703125 -12.695312 20.085938 -10.945312 20.796875 -9.59375 C 21.503906 -8.238281 22.535156 -7.5625 23.890625 -7.5625 C 24.804688 -7.5625 25.554688 -7.898438 26.140625 -8.578125 C 26.722656 -9.253906 27.109375 -10.082031 27.296875 -11.0625 L 28.21875 -10.875 C 27.851562 -7.5 26.851562 -4.640625 25.21875 -2.296875 C 23.59375 0.0351562 21.054688 1.203125 17.609375 1.203125 Z M 17.609375 1.203125 "/></g></g></g><g fill="#f7de32" fill-opacity="1"><g transform="translate(5.962275, 401.986662)"><g><path d="M 40.671875 1.203125 C 36.546875 1.203125 32.976562 0.296875 29.96875 -1.515625 C 26.957031 -3.328125 24.929688 -6.113281 23.890625 -9.875 L 23.046875 -9.875 L 23.046875 0 L 2.125 0 L 2.125 -1.109375 C 3.101562 -2.273438 3.945312 -4.898438 4.65625 -8.984375 C 5.363281 -13.078125 5.71875 -18.535156 5.71875 -25.359375 L 5.71875 -39.09375 C 5.71875 -45.976562 5.363281 -51.460938 4.65625 -55.546875 C 3.945312 -59.640625 3.101562 -62.273438 2.125 -63.453125 L 2.125 -64.546875 L 40.671875 -64.546875 C 45.890625 -64.546875 49.773438 -63.640625 52.328125 -61.828125 C 54.878906 -60.015625 56.15625 -57.664062 56.15625 -54.78125 C 56.15625 -52.75 55.445312 -51.039062 54.03125 -49.65625 C 52.625 -48.269531 50.75 -47.222656 48.40625 -46.515625 C 46.070312 -45.816406 43.523438 -45.46875 40.765625 -45.46875 L 38.640625 -45.46875 L 38.640625 -44.359375 L 40.671875 -44.359375 C 45.585938 -44.359375 50.039062 -43.46875 54.03125 -41.6875 C 58.03125 -39.90625 61.210938 -37.367188 63.578125 -34.078125 C 65.953125 -30.785156 67.140625 -26.863281 67.140625 -22.3125 C 67.140625 -18.070312 66.1875 -14.164062 64.28125 -10.59375 C 62.375 -7.03125 59.46875 -4.171875 55.5625 -2.015625 C 51.65625 0.128906 46.691406 1.203125 40.671875 1.203125 Z M 23.140625 -46.015625 L 29.875 -46.015625 C 32.644531 -46.015625 34.765625 -46.796875 36.234375 -48.359375 C 37.710938 -49.929688 38.453125 -51.851562 38.453125 -54.125 C 38.453125 -56.28125 37.925781 -58.21875 36.875 -59.9375 C 35.832031 -61.664062 34.144531 -62.53125 31.8125 -62.53125 L 23.140625 -62.53125 Z M 37.90625 -0.828125 C 41.40625 -0.828125 44.398438 -2.378906 46.890625 -5.484375 C 49.378906 -8.585938 50.625 -12.90625 50.625 -18.4375 C 50.625 -21.332031 50.207031 -24.269531 49.375 -27.25 C 48.550781 -30.226562 47.335938 -32.976562 45.734375 -35.5 C 44.140625 -38.019531 42.1875 -40.046875 39.875 -41.578125 C 37.570312 -43.117188 34.914062 -43.890625 31.90625 -43.890625 L 23.046875 -43.890625 L 23.046875 -19.640625 L 23.796875 -19.640625 C 24.285156 -22.222656 25.359375 -24.296875 27.015625 -25.859375 C 28.679688 -27.429688 30.554688 -28.21875 32.640625 -28.21875 C 34.671875 -28.21875 36.332031 -27.707031 37.625 -26.6875 C 38.914062 -25.675781 39.882812 -24.351562 40.53125 -22.71875 C 41.175781 -21.09375 41.5 -19.359375 41.5 -17.515625 C 41.5 -16.660156 41.359375 -15.601562 41.078125 -14.34375 C 40.804688 -13.082031 40.515625 -12.207031 40.203125 -11.71875 L 39.1875 -11.71875 C 39.3125 -12.882812 39.1875 -14.082031 38.8125 -15.3125 C 38.445312 -16.539062 37.816406 -17.582031 36.921875 -18.4375 C 36.035156 -19.300781 34.859375 -19.734375 33.390625 -19.734375 C 31.484375 -19.734375 29.957031 -18.945312 28.8125 -17.375 C 27.675781 -15.8125 27.109375 -13.675781 27.109375 -10.96875 C 27.109375 -8.332031 28.109375 -5.984375 30.109375 -3.921875 C 32.109375 -1.859375 34.707031 -0.828125 37.90625 -0.828125 Z M 37.90625 -0.828125 "/></g></g></g><g fill="#f7de32" fill-opacity="1"><g transform="translate(74.74715, 401.986662)"><g><path d="M 19.09375 1.203125 C 13.863281 1.203125 9.648438 -0.269531 6.453125 -3.21875 C 3.253906 -6.175781 1.65625 -10.082031 1.65625 -14.9375 C 1.65625 -19.789062 3.253906 -23.691406 6.453125 -26.640625 C 9.648438 -29.597656 13.863281 -31.078125 19.09375 -31.078125 C 21.789062 -31.078125 24.320312 -30.507812 26.6875 -29.375 C 29.0625 -28.238281 30.832031 -26.835938 32 -25.171875 L 33.015625 -25.171875 L 30.609375 -39.09375 C 29.992188 -42.476562 28.796875 -45.109375 27.015625 -46.984375 C 25.234375 -48.859375 22.898438 -49.796875 20.015625 -49.796875 C 17.734375 -49.796875 15.945312 -49.242188 14.65625 -48.140625 C 13.363281 -47.035156 12.71875 -45.585938 12.71875 -43.796875 C 12.71875 -42.265625 13.207031 -41.050781 14.1875 -40.15625 C 15.175781 -39.269531 16.316406 -38.828125 17.609375 -38.828125 C 19.023438 -38.828125 20.175781 -39.191406 21.0625 -39.921875 C 21.957031 -40.660156 22.253906 -41.617188 21.953125 -42.796875 L 22.96875 -42.96875 C 23.269531 -42.601562 23.484375 -42.144531 23.609375 -41.59375 C 23.734375 -41.039062 23.796875 -40.515625 23.796875 -40.015625 C 23.796875 -38.171875 23.085938 -36.476562 21.671875 -34.9375 C 20.253906 -33.40625 18.285156 -32.640625 15.765625 -32.640625 C 13.242188 -32.640625 11.078125 -33.453125 9.265625 -35.078125 C 7.453125 -36.710938 6.546875 -38.695312 6.546875 -41.03125 C 6.546875 -43.125 7.296875 -44.984375 8.796875 -46.609375 C 10.304688 -48.242188 12.320312 -49.535156 14.84375 -50.484375 C 17.363281 -51.441406 20.191406 -51.921875 23.328125 -51.921875 C 29.910156 -51.921875 35.046875 -50.257812 38.734375 -46.9375 C 42.421875 -43.613281 44.785156 -39.035156 45.828125 -33.203125 L 49.0625 -14.578125 C 49.425781 -12.484375 49.992188 -10.789062 50.765625 -9.5 C 51.535156 -8.207031 52.597656 -7.5625 53.953125 -7.5625 C 54.867188 -7.5625 55.570312 -7.882812 56.0625 -8.53125 C 56.5625 -9.175781 56.929688 -9.988281 57.171875 -10.96875 L 58.09375 -10.96875 C 57.851562 -7.65625 56.914062 -4.796875 55.28125 -2.390625 C 53.65625 0.00390625 51.242188 1.203125 48.046875 1.203125 C 44.785156 1.203125 42.171875 0.113281 40.203125 -2.0625 C 38.234375 -4.25 36.972656 -6.941406 36.421875 -10.140625 L 35.40625 -10.140625 C 34.425781 -6.828125 32.457031 -4.109375 29.5 -1.984375 C 26.550781 0.140625 23.082031 1.203125 19.09375 1.203125 Z M 25.265625 -4.890625 C 27.972656 -4.890625 30.21875 -5.914062 32 -7.96875 C 33.78125 -10.03125 34.671875 -12.628906 34.671875 -15.765625 C 34.671875 -18.835938 33.78125 -21.40625 32 -23.46875 C 30.21875 -25.53125 27.972656 -26.5625 25.265625 -26.5625 C 22.441406 -26.5625 20.164062 -25.578125 18.4375 -23.609375 C 16.71875 -21.640625 15.859375 -19.023438 15.859375 -15.765625 C 15.859375 -12.566406 16.71875 -9.953125 18.4375 -7.921875 C 20.164062 -5.898438 22.441406 -4.890625 25.265625 -4.890625 Z M 25.265625 -4.890625 "/></g></g></g><g fill="#f7de32" fill-opacity="1"><g transform="translate(132.283048, 401.986662)"><g><path d="M 17.609375 1.203125 C 13.679688 1.203125 10.640625 -0.0703125 8.484375 -2.625 C 6.328125 -5.175781 5.25 -8.390625 5.25 -12.265625 L 5.25 -48.046875 C 5.25 -51.546875 5.09375 -54.34375 4.78125 -56.4375 C 4.476562 -58.53125 4.097656 -60.128906 3.640625 -61.234375 C 3.179688 -62.335938 2.675781 -63.132812 2.125 -63.625 L 2.125 -64.546875 C 5.007812 -64.671875 7.988281 -65.085938 11.0625 -65.796875 C 14.132812 -66.503906 16.6875 -67.535156 18.71875 -68.890625 L 19.640625 -68.890625 L 19.640625 -14.84375 C 19.703125 -12.695312 20.085938 -10.945312 20.796875 -9.59375 C 21.503906 -8.238281 22.535156 -7.5625 23.890625 -7.5625 C 24.804688 -7.5625 25.554688 -7.898438 26.140625 -8.578125 C 26.722656 -9.253906 27.109375 -10.082031 27.296875 -11.0625 L 28.21875 -10.875 C 27.851562 -7.5 26.851562 -4.640625 25.21875 -2.296875 C 23.59375 0.0351562 21.054688 1.203125 17.609375 1.203125 Z M 17.609375 1.203125 "/></g></g></g><g fill="#32120e" fill-opacity="0.4"><g transform="translate(163.267746, 403.861579)"><g/></g></g><g fill="#32120e" fill-opacity="0.4"><g transform="translate(190.375992, 403.861579)"><g/></g></g><g fill="#32120e" fill-opacity="0.4"><g transform="translate(217.484239, 403.861579)"><g/></g></g><g fill="#f7de32" fill-opacity="1"><g transform="translate(161.392833, 401.986662)"><g/></g></g><g fill="#f7de32" fill-opacity="1"><g transform="translate(188.501079, 401.986662)"><g/></g></g><g fill="#f7de32" fill-opacity="1"><g transform="translate(215.609325, 401.986662)"><g/></g></g><g fill="#32120e" fill-opacity="0.4"><g transform="translate(244.596904, 403.861579)"><g><path d="M 2.3125 0 L 2.3125 -1.015625 C 3.164062 -2.179688 3.867188 -4.804688 4.421875 -8.890625 C 4.972656 -12.984375 5.25 -18.378906 5.25 -25.078125 L 5.25 -31.265625 C 5.25 -36.546875 4.941406 -40.289062 4.328125 -42.5 C 3.710938 -44.71875 2.976562 -46.195312 2.125 -46.9375 L 2.125 -47.859375 C 5.007812 -47.984375 8.003906 -48.382812 11.109375 -49.0625 C 14.210938 -49.738281 16.75 -50.753906 18.71875 -52.109375 L 19.734375 -52.109375 L 19.734375 -41.21875 L 20.75 -41.21875 C 21.976562 -44.664062 24.050781 -47.3125 26.96875 -49.15625 C 29.894531 -51 33.296875 -51.921875 37.171875 -51.921875 C 41.035156 -51.921875 44.378906 -50.96875 47.203125 -49.0625 C 50.035156 -47.15625 52.21875 -44.601562 53.75 -41.40625 C 55.289062 -38.207031 56.0625 -34.671875 56.0625 -30.796875 L 56.0625 -24.8125 C 56.0625 -18.101562 56.351562 -12.75 56.9375 -8.75 C 57.53125 -4.757812 58.222656 -2.179688 59.015625 -1.015625 L 59.015625 0 L 38.546875 0 L 38.546875 -1.015625 C 39.410156 -2.179688 40.117188 -4.757812 40.671875 -8.75 C 41.222656 -12.75 41.5 -18.101562 41.5 -24.8125 L 41.5 -32 C 41.5 -35.5 40.5 -38.460938 38.5 -40.890625 C 36.5 -43.328125 33.867188 -44.546875 30.609375 -44.546875 C 27.359375 -44.546875 24.734375 -43.359375 22.734375 -40.984375 C 20.734375 -38.617188 19.734375 -35.65625 19.734375 -32.09375 L 19.734375 -24.8125 C 19.734375 -18.101562 20.039062 -12.75 20.65625 -8.75 C 21.269531 -4.757812 21.976562 -2.179688 22.78125 -1.015625 L 22.78125 0 Z M 2.3125 0 "/></g></g></g><g fill="#32120e" fill-opacity="0.4"><g transform="translate(305.728804, 403.861579)"><g><path d="M 31.8125 1.203125 C 27.695312 1.140625 23.820312 0.476562 20.1875 -0.78125 C 16.5625 -2.039062 13.363281 -3.835938 10.59375 -6.171875 C 7.832031 -8.515625 5.648438 -11.296875 4.046875 -14.515625 C 2.453125 -17.742188 1.65625 -21.359375 1.65625 -25.359375 C 1.65625 -30.710938 2.914062 -35.382812 5.4375 -39.375 C 7.957031 -43.375 11.382812 -46.460938 15.71875 -48.640625 C 20.050781 -50.828125 24.925781 -51.921875 30.34375 -51.921875 C 33.78125 -51.921875 37.203125 -51.394531 40.609375 -50.34375 C 44.023438 -49.300781 46.875 -47.890625 49.15625 -46.109375 L 45.5625 -34.671875 L 44.71875 -34.671875 C 43.863281 -39.410156 42.25 -43.128906 39.875 -45.828125 C 37.507812 -48.535156 34.757812 -49.890625 31.625 -49.890625 C 28.800781 -49.890625 26.25 -48.78125 23.96875 -46.5625 C 21.695312 -44.351562 19.882812 -41.453125 18.53125 -37.859375 C 17.175781 -34.265625 16.5 -30.375 16.5 -26.1875 C 16.5 -21.394531 17.34375 -17.109375 19.03125 -13.328125 C 20.726562 -9.546875 22.988281 -6.546875 25.8125 -4.328125 C 28.644531 -2.117188 31.8125 -1.015625 35.3125 -1.015625 C 38.820312 -1.015625 41.5 -1.875 43.34375 -3.59375 C 45.1875 -5.3125 46.109375 -7.460938 46.109375 -10.046875 C 46.109375 -12.203125 45.492188 -13.894531 44.265625 -15.125 C 43.035156 -16.351562 41.5625 -16.96875 39.84375 -16.96875 C 38 -16.96875 36.582031 -16.351562 35.59375 -15.125 C 34.613281 -13.894531 34.273438 -12.601562 34.578125 -11.25 L 33.65625 -11.0625 C 33.226562 -11.613281 32.875 -12.394531 32.59375 -13.40625 C 32.320312 -14.425781 32.1875 -15.335938 32.1875 -16.140625 C 32.1875 -18.960938 33.125 -21.40625 35 -23.46875 C 36.875 -25.53125 39.5625 -26.5625 43.0625 -26.5625 C 45.21875 -26.5625 47.140625 -26.035156 48.828125 -24.984375 C 50.515625 -23.941406 51.847656 -22.546875 52.828125 -20.796875 C 53.816406 -19.046875 54.3125 -17.09375 54.3125 -14.9375 C 54.3125 -11.5625 53.296875 -8.65625 51.265625 -6.21875 C 49.242188 -3.789062 46.523438 -1.945312 43.109375 -0.6875 C 39.703125 0.570312 35.9375 1.203125 31.8125 1.203125 Z M 31.8125 1.203125 "/></g></g></g><g fill="#32120e" fill-opacity="0.4"><g transform="translate(361.697219, 403.861579)"><g><path d="M 33.015625 1.203125 C 29.078125 1.203125 25.234375 0.617188 21.484375 -0.546875 C 17.734375 -1.722656 14.367188 -3.429688 11.390625 -5.671875 C 8.410156 -7.910156 6.039062 -10.691406 4.28125 -14.015625 C 2.53125 -17.335938 1.65625 -21.117188 1.65625 -25.359375 C 1.65625 -30.710938 2.851562 -35.382812 5.25 -39.375 C 7.65625 -43.375 11.039062 -46.460938 15.40625 -48.640625 C 19.769531 -50.828125 24.898438 -51.921875 30.796875 -51.921875 C 38.421875 -51.921875 44.09375 -50.628906 47.8125 -48.046875 C 51.53125 -45.460938 53.390625 -42.296875 53.390625 -38.546875 C 53.390625 -35.773438 52.328125 -33.546875 50.203125 -31.859375 C 48.085938 -30.171875 45.242188 -28.941406 41.671875 -28.171875 C 38.109375 -27.398438 34.128906 -27 29.734375 -26.96875 C 25.335938 -26.9375 20.867188 -27.226562 16.328125 -27.84375 C 16.265625 -27.601562 16.234375 -27.207031 16.234375 -26.65625 C 16.234375 -21.738281 17.078125 -17.328125 18.765625 -13.421875 C 20.453125 -9.515625 22.816406 -6.453125 25.859375 -4.234375 C 28.910156 -2.023438 32.429688 -0.921875 36.421875 -0.921875 C 39.679688 -0.921875 42.234375 -1.71875 44.078125 -3.3125 C 45.921875 -4.914062 46.84375 -6.945312 46.84375 -9.40625 C 46.84375 -11.4375 46.273438 -13.019531 45.140625 -14.15625 C 44.003906 -15.289062 42.632812 -15.859375 41.03125 -15.859375 C 39.25 -15.859375 37.878906 -15.289062 36.921875 -14.15625 C 35.972656 -13.019531 35.65625 -11.835938 35.96875 -10.609375 L 34.953125 -10.515625 C 34.523438 -11.003906 34.1875 -11.753906 33.9375 -12.765625 C 33.6875 -13.785156 33.5625 -14.664062 33.5625 -15.40625 C 33.5625 -18.101562 34.484375 -20.4375 36.328125 -22.40625 C 38.171875 -24.375 40.785156 -25.359375 44.171875 -25.359375 C 47.367188 -25.359375 49.96875 -24.265625 51.96875 -22.078125 C 53.96875 -19.898438 54.96875 -17.273438 54.96875 -14.203125 C 54.96875 -11.316406 54.085938 -8.703125 52.328125 -6.359375 C 50.578125 -4.023438 48.054688 -2.179688 44.765625 -0.828125 C 41.484375 0.523438 37.566406 1.203125 33.015625 1.203125 Z M 16.328125 -29.6875 C 21.179688 -29.320312 25.570312 -29.445312 29.5 -30.0625 C 33.4375 -30.675781 36.554688 -31.828125 38.859375 -33.515625 C 41.171875 -35.210938 42.328125 -37.378906 42.328125 -40.015625 C 42.265625 -42.722656 41.390625 -45.046875 39.703125 -46.984375 C 38.015625 -48.921875 35.289062 -49.890625 31.53125 -49.890625 C 27.539062 -49.890625 24.113281 -48.078125 21.25 -44.453125 C 18.394531 -40.828125 16.753906 -35.90625 16.328125 -29.6875 Z M 16.328125 -29.6875 "/></g></g></g><g fill="#f7de32" fill-opacity="1"><g transform="translate(242.72199, 401.986662)"><g><path d="M 2.3125 0 L 2.3125 -1.015625 C 3.164062 -2.179688 3.867188 -4.804688 4.421875 -8.890625 C 4.972656 -12.984375 5.25 -18.378906 5.25 -25.078125 L 5.25 -31.265625 C 5.25 -36.546875 4.941406 -40.289062 4.328125 -42.5 C 3.710938 -44.71875 2.976562 -46.195312 2.125 -46.9375 L 2.125 -47.859375 C 5.007812 -47.984375 8.003906 -48.382812 11.109375 -49.0625 C 14.210938 -49.738281 16.75 -50.753906 18.71875 -52.109375 L 19.734375 -52.109375 L 19.734375 -41.21875 L 20.75 -41.21875 C 21.976562 -44.664062 24.050781 -47.3125 26.96875 -49.15625 C 29.894531 -51 33.296875 -51.921875 37.171875 -51.921875 C 41.035156 -51.921875 44.378906 -50.96875 47.203125 -49.0625 C 50.035156 -47.15625 52.21875 -44.601562 53.75 -41.40625 C 55.289062 -38.207031 56.0625 -34.671875 56.0625 -30.796875 L 56.0625 -24.8125 C 56.0625 -18.101562 56.351562 -12.75 56.9375 -8.75 C 57.53125 -4.757812 58.222656 -2.179688 59.015625 -1.015625 L 59.015625 0 L 38.546875 0 L 38.546875 -1.015625 C 39.410156 -2.179688 40.117188 -4.757812 40.671875 -8.75 C 41.222656 -12.75 41.5 -18.101562 41.5 -24.8125 L 41.5 -32 C 41.5 -35.5 40.5 -38.460938 38.5 -40.890625 C 36.5 -43.328125 33.867188 -44.546875 30.609375 -44.546875 C 27.359375 -44.546875 24.734375 -43.359375 22.734375 -40.984375 C 20.734375 -38.617188 19.734375 -35.65625 19.734375 -32.09375 L 19.734375 -24.8125 C 19.734375 -18.101562 20.039062 -12.75 20.65625 -8.75 C 21.269531 -4.757812 21.976562 -2.179688 22.78125 -1.015625 L 22.78125 0 Z M 2.3125 0 "/></g></g></g><g fill="#f7de32" fill-opacity="1"><g transform="translate(303.85389, 401.986662)"><g><path d="M 31.8125 1.203125 C 27.695312 1.140625 23.820312 0.476562 20.1875 -0.78125 C 16.5625 -2.039062 13.363281 -3.835938 10.59375 -6.171875 C 7.832031 -8.515625 5.648438 -11.296875 4.046875 -14.515625 C 2.453125 -17.742188 1.65625 -21.359375 1.65625 -25.359375 C 1.65625 -30.710938 2.914062 -35.382812 5.4375 -39.375 C 7.957031 -43.375 11.382812 -46.460938 15.71875 -48.640625 C 20.050781 -50.828125 24.925781 -51.921875 30.34375 -51.921875 C 33.78125 -51.921875 37.203125 -51.394531 40.609375 -50.34375 C 44.023438 -49.300781 46.875 -47.890625 49.15625 -46.109375 L 45.5625 -34.671875 L 44.71875 -34.671875 C 43.863281 -39.410156 42.25 -43.128906 39.875 -45.828125 C 37.507812 -48.535156 34.757812 -49.890625 31.625 -49.890625 C 28.800781 -49.890625 26.25 -48.78125 23.96875 -46.5625 C 21.695312 -44.351562 19.882812 -41.453125 18.53125 -37.859375 C 17.175781 -34.265625 16.5 -30.375 16.5 -26.1875 C 16.5 -21.394531 17.34375 -17.109375 19.03125 -13.328125 C 20.726562 -9.546875 22.988281 -6.546875 25.8125 -4.328125 C 28.644531 -2.117188 31.8125 -1.015625 35.3125 -1.015625 C 38.820312 -1.015625 41.5 -1.875 43.34375 -3.59375 C 45.1875 -5.3125 46.109375 -7.460938 46.109375 -10.046875 C 46.109375 -12.203125 45.492188 -13.894531 44.265625 -15.125 C 43.035156 -16.351562 41.5625 -16.96875 39.84375 -16.96875 C 38 -16.96875 36.582031 -16.351562 35.59375 -15.125 C 34.613281 -13.894531 34.273438 -12.601562 34.578125 -11.25 L 33.65625 -11.0625 C 33.226562 -11.613281 32.875 -12.394531 32.59375 -13.40625 C 32.320312 -14.425781 32.1875 -15.335938 32.1875 -16.140625 C 32.1875 -18.960938 33.125 -21.40625 35 -23.46875 C 36.875 -25.53125 39.5625 -26.5625 43.0625 -26.5625 C 45.21875 -26.5625 47.140625 -26.035156 48.828125 -24.984375 C 50.515625 -23.941406 51.847656 -22.546875 52.828125 -20.796875 C 53.816406 -19.046875 54.3125 -17.09375 54.3125 -14.9375 C 54.3125 -11.5625 53.296875 -8.65625 51.265625 -6.21875 C 49.242188 -3.789062 46.523438 -1.945312 43.109375 -0.6875 C 39.703125 0.570312 35.9375 1.203125 31.8125 1.203125 Z M 31.8125 1.203125 "/></g></g></g><g fill="#f7de32" fill-opacity="1"><g transform="translate(359.822306, 401.986662)"><g><path d="M 33.015625 1.203125 C 29.078125 1.203125 25.234375 0.617188 21.484375 -0.546875 C 17.734375 -1.722656 14.367188 -3.429688 11.390625 -5.671875 C 8.410156 -7.910156 6.039062 -10.691406 4.28125 -14.015625 C 2.53125 -17.335938 1.65625 -21.117188 1.65625 -25.359375 C 1.65625 -30.710938 2.851562 -35.382812 5.25 -39.375 C 7.65625 -43.375 11.039062 -46.460938 15.40625 -48.640625 C 19.769531 -50.828125 24.898438 -51.921875 30.796875 -51.921875 C 38.421875 -51.921875 44.09375 -50.628906 47.8125 -48.046875 C 51.53125 -45.460938 53.390625 -42.296875 53.390625 -38.546875 C 53.390625 -35.773438 52.328125 -33.546875 50.203125 -31.859375 C 48.085938 -30.171875 45.242188 -28.941406 41.671875 -28.171875 C 38.109375 -27.398438 34.128906 -27 29.734375 -26.96875 C 25.335938 -26.9375 20.867188 -27.226562 16.328125 -27.84375 C 16.265625 -27.601562 16.234375 -27.207031 16.234375 -26.65625 C 16.234375 -21.738281 17.078125 -17.328125 18.765625 -13.421875 C 20.453125 -9.515625 22.816406 -6.453125 25.859375 -4.234375 C 28.910156 -2.023438 32.429688 -0.921875 36.421875 -0.921875 C 39.679688 -0.921875 42.234375 -1.71875 44.078125 -3.3125 C 45.921875 -4.914062 46.84375 -6.945312 46.84375 -9.40625 C 46.84375 -11.4375 46.273438 -13.019531 45.140625 -14.15625 C 44.003906 -15.289062 42.632812 -15.859375 41.03125 -15.859375 C 39.25 -15.859375 37.878906 -15.289062 36.921875 -14.15625 C 35.972656 -13.019531 35.65625 -11.835938 35.96875 -10.609375 L 34.953125 -10.515625 C 34.523438 -11.003906 34.1875 -11.753906 33.9375 -12.765625 C 33.6875 -13.785156 33.5625 -14.664062 33.5625 -15.40625 C 33.5625 -18.101562 34.484375 -20.4375 36.328125 -22.40625 C 38.171875 -24.375 40.785156 -25.359375 44.171875 -25.359375 C 47.367188 -25.359375 49.96875 -24.265625 51.96875 -22.078125 C 53.96875 -19.898438 54.96875 -17.273438 54.96875 -14.203125 C 54.96875 -11.316406 54.085938 -8.703125 52.328125 -6.359375 C 50.578125 -4.023438 48.054688 -2.179688 44.765625 -0.828125 C 41.484375 0.523438 37.566406 1.203125 33.015625 1.203125 Z M 16.328125 -29.6875 C 21.179688 -29.320312 25.570312 -29.445312 29.5 -30.0625 C 33.4375 -30.675781 36.554688 -31.828125 38.859375 -33.515625 C 41.171875 -35.210938 42.328125 -37.378906 42.328125 -40.015625 C 42.265625 -42.722656 41.390625 -45.046875 39.703125 -46.984375 C 38.015625 -48.921875 35.289062 -49.890625 31.53125 -49.890625 C 27.539062 -49.890625 24.113281 -48.078125 21.25 -44.453125 C 18.394531 -40.828125 16.753906 -35.90625 16.328125 -29.6875 Z M 16.328125 -29.6875 "/></g></g></g><g clip-path="url(#34a4ff69e0)"><path fill="#ff3131" d="M 198.917969 379.894531 C 170.207031 424.089844 152.171875 368.621094 198.644531 379.054688 C 149.21875 366.023438 197.785156 331.390625 199.363281 378.535156 C 201.917969 325.992188 246.554688 368.621094 200.082031 379.054688 C 250.253906 370.199219 228.535156 424.089844 199.804688 379.894531 C 226.988281 421.902344 170.191406 424.089844 198.917969 379.894531 Z M 198.917969 379.894531 " fill-opacity="1" fill-rule="nonzero"/></g><g fill="#f7de32" fill-opacity="1"><g transform="translate(437.150394, 333.504372)"><g><path d="M 3.4375 -0.796875 L -2.4375 -26.15625 L 0.765625 -26.890625 L 5.984375 -4.375 L 17.0625 -6.953125 L 17.71875 -4.109375 Z M 3.4375 -0.796875 "/></g></g></g><g fill="#f7de32" fill-opacity="1"><g transform="translate(458.480182, 329.556629)"><g><path d="M 10.8125 1.046875 L 1.453125 0.140625 L 1.640625 -1.734375 L 4.75 -2.140625 L 6.765625 -22.859375 L 3.78125 -23.875 L 3.96875 -25.765625 L 13.328125 -24.859375 L 13.140625 -22.96875 L 10.03125 -22.546875 L 8.015625 -1.828125 L 11 -0.828125 Z M 10.8125 1.046875 "/></g></g></g><g fill="#f7de32" fill-opacity="1"><g transform="translate(473.530233, 330.930009)"><g><path d="M 6.21875 2.78125 L 3.21875 1.4375 L 13.828125 -22.328125 L 27.109375 -16.390625 L 25.9375 -13.75 L 15.65625 -18.34375 L 11.890625 -9.9375 L 21.546875 -5.625 L 20.375 -3 L 10.71875 -7.3125 Z M 6.21875 2.78125 "/></g></g></g><g fill="#f7de32" fill-opacity="1"><g transform="translate(492.73374, 339.838942)"><g><path d="M 12.546875 13.015625 L 2.453125 2.546875 L 21.203125 -15.515625 L 31.296875 -5.046875 L 29.203125 -3.046875 L 21.390625 -11.15625 L 15.546875 -5.515625 L 22.90625 2.125 L 20.859375 4.09375 L 13.5 -3.546875 L 6.796875 2.90625 L 14.609375 11.015625 Z M 12.546875 13.015625 "/></g></g></g><path stroke-linecap="butt" transform="matrix(1.466844, 0, 0, 1.466844, 432.819886, 305.61715)" fill="none" stroke-linejoin="miter" d="M 21.381768 68.423948 L 21.381768 67.672973 C 22.087471 66.373414 22.569479 63.481362 22.82513 58.99948 L 0.18404 58.99948 L -0.122209 58.248506 L 24.713219 24.417358 L 29.546621 24.417358 L 29.546621 55.668029 L 36.654251 55.668029 L 35.839364 58.99948 L 29.73037 58.99948 C 29.986021 63.481362 30.473356 66.373414 31.189711 67.672973 L 31.189711 68.423948 Z M 4.282445 55.668029 L 23.00888 55.668029 L 23.00888 30.265375 L 22.638718 30.265375 L 4.143967 55.284552 Z M 4.282445 55.668029 " stroke="#43d0c7" stroke-width="4.715588" stroke-opacity="1" stroke-miterlimit="4"/><g fill="#43d0c7" fill-opacity="1"><g transform="translate(432.819886, 392.160918)"><g><path d="M 31.359375 13.828125 L 31.359375 12.71875 C 32.398438 10.820312 33.101562 6.582031 33.46875 0 L 0.28125 0 L -0.1875 -1.109375 L 36.234375 -50.71875 L 43.34375 -50.71875 L 43.34375 -4.890625 L 53.765625 -4.890625 L 52.5625 0 L 43.625 0 C 43.988281 6.582031 44.691406 10.820312 45.734375 12.71875 L 45.734375 13.828125 Z M 6.265625 -4.890625 L 33.75 -4.890625 L 33.75 -42.140625 L 33.203125 -42.140625 L 6.09375 -5.4375 Z M 6.265625 -4.890625 "/></g></g></g></svg>