<?xml version="1.0" encoding="UTF-8"?>
<svg version="1.1" viewBox="0 0 2048 1153" width="666" height="375" xmlns="http://www.w3.org/2000/svg">
<path transform="translate(31,465)" d="m0 0h155l19 3 19 8 6 6v2l4 2 4 5 6 12 1 3v9l-6 12-4 5-10 6-14 5-6 2 19 5 21 11 5 5 9 7 10 11 7 11 5 10 5 19v24l-6 25-8 14-7 9-8 8-14 8-8 5-16 4-22 4h-22l-12-3-16-6-9-6-7-6-5-5-9-12 1 32-1 1h-78l-2-1v-5l-7-1v-3l4-8 6-28 3-26 1-18v-78l-2-31-3-21-6-26-4-8zm88 16-1 33v22l1 1h26l10-4 9-8 5-11 1-11-2-10-5-10-2-2zm6 70-7 1-1 72 3-3 3-4v-2l4-2 13-7 4-1h7l11 4 10 7 6 8 4 5 3 9 2 11v9l-3 15-1 2h-2l-1-7-4-1h-2l-2-12-5-9-4-3-11 1-6 3-9 10-4 10-1 8v9l3 10 9 10 8 4 12 2h8l11-2 11-7 9-9 4-6 8-21 1-5 1-17-1-17-4-16-7-21-9-15-7-8-9-8-12-5-8-2z" fill="#F7DD43"/>
<path transform="translate(1793,467)" d="m0 0h46v177h43l-1 11-7 26-3 7-30 1 3 17 5 17v18h-83v-19l4-8 3-14 1-12h-122l-4-6-3-10 1-6 7-9 7-10 7-9 8-11 10-14 21-28 8-12 6-7 4-6 6-8 8-11 10-14 4-4 4-7 10-13 8-11 4-6 5-6 7-10zm-19 87-9 11-11 15-16 22-12 16-10 14-6 8-1 3 1 1h65v-90z" fill="#43D2C7"/>
<path transform="translate(805,526)" d="m0 0h19l7 3 8 7 6 9 2 6 1 11-2 13-5 9-8 10-9 8-10 7-8 4-22 9h40l16 2 15 6 12 7 6 7 4 4 4 12 1 7-3 14-3 5-8 6-8 4-5 1h-11l-10-3-17-9-13-10-12-12-9-10-7-9 1 3 8 16 7 18 2 15v26l-3 10-8 11-7 6-7 3h-17l-8-4-6-7-7-13-1-4v-23l4-15 7-20 6-11 3-6-7 6-7 9-5 4-7 8-11 8-16 8-8 3-4 1h-9l-9-4-9-7-3-5-2-7v-15l2-9 9-11 4-4 16-9 12-3 10-1h37l-16-7-12-5-13-8-16-14-8-13-2-6v-11l2-7 10-12 13-6 3-1h11l12 4 11 7 11 14 8 19 4 14 3 25 4-27 6-25 12-22 11-11z" fill="#FB3536"/>
<path transform="translate(1e3 513)" d="m0 0h3l1 7 1 1 5-1 1 10v15l6-9 8-8 16-10 7-2 8-1h27l14 3 18 11 12 12 11 15 5 11 6 21 1 9 1 50 2 39 2 16 4 10 3 7-1 1h-78v-6l-7-1 1-7 6-28 3-30 1-31v-19l-1-17-4-12-6-11-8-6-4-2-12-1-12 2-12 7-5 4-6 8-4 13-1 4-1 18v21l1 30 3 41 2 9 6 13-1 1h-78v-6l-8-1 4-16 4-21 2-16 1-16v-69l-2-18-5-16-5-11 1-1 29-3 15-4z" fill="#F7DE43"/>
<path transform="translate(360,515)" d="m0 0h33l14 2 9 4 14 8 12 11 9 10 10 17 9 27 3 18 3 23 6 28 3 16 2 4 7 1 7-4 5-9 3 1-1 6v9h2l3-9h2l1 3-3 16-6 12-9 10-12 5-4 1h-11l-13-5-6-4-12-10-6-8-4-7-2-5-8 14-7 8-12 9-7 3-20 5h-18l-20-6-9-4-13-10-5-6-5-4-10-19-2-10v-20l2-10 10-19 9-8 4-4 10-5 19-7-9-4-7-3-10-8-6-8-2-6v-16l3-9 12-12 16-9 8-2zm-7 9-6 3 3 1 2-1 17-1h6l-4-2zm22 2m3 1m-32 1m18 0-10 4-9 7-3 9v10l4 5 3 1h10l8-4 3-4 1-8 4 2 3 6 5 5 1 8-3 9-7 10-8 4v2l12 3 17 7 15 13h2l-4-34-5-23-6-18-9-10-4-3-8-1zm16 0m-27 62m-5 1v1h5v-1zm38 27-15 5-6 5-7 9-3 10-1 8v12l2 13 3 5 8 6 6 3 4 1h11l9-3 11-7 7-11 4-11v-19l-3-10-7-11-9-4-4-1zm36 57-1 6 4-2-1-4zm3 4 1 5 1-2zm-5 2-1 7 2-2v-5z" fill="#F7DD43"/>
<path transform="translate(1479,515)" d="m0 0h40l18 2 12 4 17 9 15 15 7 11 3 5 1 4v15l-5 10-9 10-23 11-18 3-20 2h-33l-34-2v13l2 16 4 20 6 14 7 10 9 9 16 9 12 3h26l10-3 10-8 6-10 1-3v-13l-4-8-6-4-8 1-8 3-5 5-3 6-2 6-3-1-2-5h-3l-3-3-3-6-1-5v-13l4-11 9-12 15-7 11-2 12 1 16 8 9 9 7 10 5 13 1 5v13l-4 14-5 8-9 10-18 11-10 3-19 4-8 1h-20l-14-2-13-3-11-2-19-9-21-14-12-11-10-11-12-21-4-17-2-14v-9l2-17 4-18 4-8 8-14 9-10 7-7 13-9 22-10 13-3zm19 9v1h14v-1zm-4 1m11 2-8 2-9 4-11 6-7 8-4 4-11 22-5 22v5l5 1h25l20-4 21-7 8-5 7-6 4-8 1-4v-17l-3-10-5-5-7-6-9-2z" fill="#F7DE43"/>
<path transform="translate(1265,515)" d="m0 0h33l16 2 13 5 19 8 8 8 5 4v7l-4 15-9 24-2-2-1-7-6 1-1-1-2-10-10-23-9-10-8-6-5-2h-11l-10 3-16 9-7 9-4 5-10 18-7 30-1 8v19l2 14 5 22 8 16 6 9 8 7 14 8 12 3h20l12-3 11-8 4-9 2-5 1-11-3-10-4-6-7-1-9 1-8 6-4 5-2 10-4-1-3-4-5-5-3-8-1-4v-8l4-13 5-10 8-6 6-4 8-2h21l9 3 9 6 9 9 10 15 3 12v16l-4 13-7 10-7 8-15 10-8 4-27 6-8 1h-19l-17-3-16-3-12-5-19-11-12-9-14-14-7-9-9-15-4-13-4-19v-18l4-18 4-15 6-9 6-10 7-7 6-7 17-12 20-9 13-3zm18 9v1h11v-1zm-4 1m75 18m-32 107m1 1m8 60-12 4v1l7-1 8-3z" fill="#F7DD43"/>
<path transform="translate(578,449)" d="m0 0h3l1 8 7-1 1 3v212l2 11 4 2 7-1 5-4 4-8h2v8l-1 7 3-1 4-8 2 1-1 12-5 13-7 11-6 5-11 5-4 1h-15l-13-5-10-6-12-11-10-18-1-5-1-158-1-25-2-11-5-12-4-8 1-1 33-4 12-4 17-7z" fill="#F8DE43"/>
<path transform="translate(1970,415)" d="m0 0 7 6 18 18 7 8 7 6-1 5-5 5-4-2-9-10-19-19-9 10-11 11 4 6 22 22-1 4-5 5-4-2-12-12-7-8-5-5-4 1-11 11-5 4-6 7 12 13 15 15 1 3-5 7-3 1-5-7-8-7-4-5-6-5-5-6-5-4-4-7 7-8 17-16 13-13 8-7z" fill="#F8DE43"/>
<path transform="translate(1870,355)" d="m0 0 12 5 26 12 11 5-1 6-3 5-40-18-1 5-8 19-4 6v2l15 7 12 5 9 5-3 9-3 1-19-9-14-6h-2l-8 18-8 16-2 3-6-2-5-3 2-5 7-15 7-16 11-25 5-12 8-16z" fill="#F8DE43"/>
<path transform="translate(1041,542)" d="m0 0h12l9 4 1 2-17 2-12 6-8 6-6 8-4 13-1 4-1 18v21l1 30 3 41 2 9 6 13-1 1h-78v-5l16-1 54-1-3-11-4-17-2-16-1-16v-74l2-9 4-6 8-10 8-7z" fill="#AFA695"/>
<path transform="translate(1675,347)" d="m0 0h4l9 34 6 28 6 23 13-2 26-6h4v11l-19 5-29 6-6 1-4-18-6-24-6-27-6-26 1-3z" fill="#F8DE43"/>
<path transform="translate(1774,336)" d="m0 0 18 1 16 2 1 2-2 6h-10l-1 18-4 41-3 24h8l3 1v8l-4 1-32-4v-6l4-2 7-1 8-67 1-14-10-1-1-7z" fill="#F8DE43"/>
<path transform="translate(586,456)" d="m0 0 4 1v220l-4-2-3-6-1-5v-193l1-13z" fill="#ADA492"/>
<path transform="translate(280,612)" d="m0 0 4 3 2 9v24l-6 25-8 14-7 9-8 8-14 8-8 5-16 4-22 4h-22l-9-2-4-4h29l22-5 20-7 16-10 9-9 9-14 7-15 6-18z" fill="#AEA593"/>
<path transform="translate(1139,555)" d="m0 0 3 3 4 9 6 21 1 9 1 50 2 39 2 16 4 10 3 7-1 1h-78v-5l9-1 62-1-5-16-4-20-2-23-1-63-2-19-4-14z" fill="#AEA594"/>
<path transform="translate(1373,641)" d="m0 0 4 4 3 12v16l-4 13-7 10-7 8-15 10-8 4-27 6-8 1h-19l-17-3-16-3-11-5 1-2h7l20 5 9 1h28l13-2 13-4 11-6 14-12 8-9 5-11 2-6 1-14-1-11z" fill="#AFA693"/>
<path transform="translate(1277,523)" d="m0 0h9v1l9 1 1 2-13 3-11 6-7 4-7 9-4 5-10 18-7 30-1 8v19l2 14 3 15-1 4-5-5-4-15-1-7-1-28 1-17 4-17 7-16 7-12 9-10 8-7z" fill="#AEA594"/>
<path transform="translate(1590,643)" d="m0 0 3 4 4 14v13l-4 14-5 8-9 10-18 11-10 3-19 4-8 1h-20l-14-2-13-3-11-2-12-6 4-1 29 6 9 1h30l16-2 16-8 9-6 10-9 9-14 5-15v-10z" fill="#AFA694"/>
<path transform="translate(1582,548)" d="m0 0 4 4 5 9 1 4v15l-5 10-9 10-23 11-18 3-20 2h-33l-9-1-2-3 3-1h25l26-2 9-2 24-8 14-10 7-9 2-5v-16z" fill="#AEA591"/>
<path transform="translate(1493,523)" d="m0 0h16v1l5 1v2l-15 2-9 4-11 6h-2l-2 4-8 8-11 22-6 26-4 1-3-2 1-15 4-16 8-17 6-8 11-11 12-6z" fill="#AEA593"/>
<path transform="translate(423,678)" d="m0 0 2 1 2 5-1 5-6 11-7 8-12 9-7 3-20 5h-18l-20-6-8-3v-2l10 2 12 2h20l16-5 12-7 11-9 9-9h2l1-7z" fill="#AFA693"/>
<path transform="translate(128,473)" d="m0 0h17l9 2 5 4v2h-40v33l-1 23h-5l-1-1v-61l1-1z" fill="#B4AC9B"/>
<path transform="translate(370,613)" d="m0 0h21l6 3v2l2 1h-13l-15 5-5 4-7 9-3 10-1 8v22l-5-5-3-8-1-6v-8l4-16 6-10 4-5z" fill="#AFA694"/>
<path transform="translate(112,546)" d="m0 0h15l18 1 7 2v2l-34 1v66l-3 12-3 1-1-29v-53z" fill="#AEA593"/>
<path transform="translate(113,680)" d="m0 0 3 3 1 9 1 27-1 1h-78l-2-1 1-5 71-1 2-1 1-29z" fill="#AFA694"/>
<path transform="translate(237,491)" d="m0 0 4 5 4 10v9l-6 12-4 5-10 6-14 5-4 1-14-1-13-3v-1l22-2 13-5 9-5 4-2 2-4 6-9 2-11z" fill="#AEA593"/>
<path transform="translate(620,677)" d="m0 0 2 1-1 12-5 13-7 11-6 5-11 5-4 1h-15l-13-5-1-2 21 1 10-3 8-6 8-9 8-14 3-4z" fill="#AEA693"/>
<path transform="translate(457,562)" d="m0 0 3 3 7 19 4 15 5 36 6 28 1 12-4-2-3-6-7-40-6-30-4-23-2-6z" fill="#AFA695"/>
<path transform="translate(513,678)" d="m0 0h2l1 3-3 16-6 12-9 10-12 5-4 1h-11l-10-4-1-2h17l12-6 6-5 9-14 3-6 3-1z" fill="#AFA695"/>
<path transform="translate(145,638)" d="m0 0h10v3h4l-1 3-9 2-8 7-5 8-2 6-1 8v12l-5-5-2-9v-7l3-12 6-10 5-4z" fill="#AFA694"/>
<path transform="translate(1353,538)" d="m0 0 5 3 1 1v7l-4 15-9 24-2-2-1-8h-2l3-11 6-21z" fill="#AFA695"/>
<path transform="translate(361,525)" d="m0 0h9l10 3 2 2-6-1h-12l-10 4-8 6-3 9-1 10-5-2-2-5v-10l4-8 11-6 2-1z" fill="#B0A790"/>
<path transform="translate(380,557)" d="m0 0 4 4 1 8-3 9-7 10-7 4h-14l6-4-2-1 11-8 6-8 4-10z" fill="#AEA593"/>
<path transform="translate(1444,608)" d="m0 0 20 2 4 1-2 2h-10l-6 1v13l2 16 3 16-1 3-6-8-4-15-1-28z" fill="#AEA593"/>
<path transform="translate(1311,649)" d="m0 0h13l4 4-1 2-9 1-8 6-4 5-2 10-4-1-3-4v-8l4-8 7-6z" fill="#AEA593"/>
<path transform="translate(1528,655)" d="m0 0h19l3 3-15 4-6 4-4 8-2 6-3-1-2-6 1-10 3-5z" fill="#AEA694"/>
<path transform="translate(178,624)" d="m0 0 5 5 3 9 2 11v9l-3 15-2 3-3-1-1-13 2-11v-9l-2-12z" fill="#B1A997"/>
<path transform="translate(1012,520)" d="m0 0h1l1 10v11h-2v8l-2 4h-2v-32z" fill="#B3AB98"/>
<path transform="translate(336,590)" d="m0 0" fill="#F8DE43"/>
<path transform="translate(335,589)" d="m0 0" fill="#F8DE43"/>
</svg>
