<svg xmlns="http://www.w3.org/2000/svg" xmlns:xlink="http://www.w3.org/1999/xlink" width="8000" zoomAndPan="magnify" viewBox="0 0 6000 2250.000011" height="3000" preserveAspectRatio="xMidYMid meet" version="1.0"><defs><g/><clipPath id="83a844116b"><path d="M 2071 664.671875 L 2999.695312 664.671875 L 2999.695312 1584.511719 L 2071 1584.511719 Z M 2071 664.671875 " clip-rule="nonzero"/></clipPath><clipPath id="f8872a4a08"><path d="M 4857 244 L 5998.667969 244 L 5998.667969 1844 L 4857 1844 Z M 4857 244 " clip-rule="nonzero"/></clipPath></defs><g fill="#32120e" fill-opacity="0.4"><g transform="translate(54.01042, 1391.559061)"><g><path d="M 509.171875 15.015625 C 457.597656 15.015625 412.953125 3.660156 375.234375 -19.046875 C 337.515625 -41.753906 312.113281 -76.585938 299.03125 -123.546875 L 288.640625 -123.546875 L 288.640625 0 L 26.5625 0 L 26.5625 -13.859375 C 38.875 -28.484375 49.453125 -61.382812 58.296875 -112.5625 C 67.148438 -163.75 71.578125 -232.066406 71.578125 -317.515625 L 71.578125 -489.546875 C 71.578125 -575.742188 67.148438 -644.429688 58.296875 -695.609375 C 49.453125 -746.796875 38.875 -779.703125 26.5625 -794.328125 L 26.5625 -808.1875 L 509.171875 -808.1875 C 574.585938 -808.1875 623.265625 -796.832031 655.203125 -774.125 C 687.148438 -751.414062 703.125 -721.972656 703.125 -685.796875 C 703.125 -660.398438 694.269531 -639.039062 676.5625 -621.71875 C 658.863281 -604.40625 635.390625 -591.320312 606.140625 -582.46875 C 576.890625 -573.613281 544.953125 -569.1875 510.328125 -569.1875 L 483.765625 -569.1875 L 483.765625 -555.34375 L 509.171875 -555.34375 C 570.734375 -555.34375 626.53125 -544.179688 676.5625 -521.859375 C 726.59375 -499.546875 766.425781 -467.796875 796.0625 -426.609375 C 825.695312 -385.429688 840.515625 -336.363281 840.515625 -279.40625 C 840.515625 -226.289062 828.582031 -177.410156 804.71875 -132.765625 C 780.863281 -88.128906 744.492188 -52.335938 695.609375 -25.390625 C 646.734375 1.546875 584.585938 15.015625 509.171875 15.015625 Z M 289.796875 -576.125 L 374.078125 -576.125 C 408.722656 -576.125 435.28125 -585.9375 453.75 -605.5625 C 472.21875 -625.1875 481.453125 -649.238281 481.453125 -677.71875 C 481.453125 -704.65625 474.910156 -728.898438 461.828125 -750.453125 C 448.742188 -772.003906 427.578125 -782.78125 398.328125 -782.78125 L 289.796875 -782.78125 Z M 474.53125 -10.390625 C 518.394531 -10.390625 555.910156 -29.820312 587.078125 -68.6875 C 618.253906 -107.5625 633.84375 -161.640625 633.84375 -230.921875 C 633.84375 -267.097656 628.644531 -303.847656 618.25 -341.171875 C 607.863281 -378.503906 592.664062 -412.945312 572.65625 -444.5 C 552.644531 -476.0625 528.207031 -501.460938 499.34375 -520.703125 C 470.488281 -539.941406 437.203125 -549.5625 399.484375 -549.5625 L 288.640625 -549.5625 L 288.640625 -245.921875 L 297.875 -245.921875 C 304.039062 -278.253906 317.515625 -304.234375 338.296875 -323.859375 C 359.078125 -343.484375 382.550781 -353.296875 408.71875 -353.296875 C 434.125 -353.296875 454.90625 -346.945312 471.0625 -334.25 C 487.226562 -321.550781 499.347656 -305 507.421875 -284.59375 C 515.503906 -264.195312 519.546875 -242.457031 519.546875 -219.375 C 519.546875 -208.59375 517.816406 -195.3125 514.359375 -179.53125 C 510.898438 -163.757812 507.242188 -152.789062 503.390625 -146.625 L 490.703125 -146.625 C 492.234375 -161.25 490.691406 -176.257812 486.078125 -191.65625 C 481.460938 -207.050781 473.570312 -220.132812 462.40625 -230.90625 C 451.25 -241.6875 436.429688 -247.078125 417.953125 -247.078125 C 394.097656 -247.078125 375.050781 -237.265625 360.8125 -217.640625 C 346.570312 -198.015625 339.453125 -171.265625 339.453125 -137.390625 C 339.453125 -104.296875 351.957031 -74.851562 376.96875 -49.0625 C 401.988281 -23.28125 434.507812 -10.390625 474.53125 -10.390625 Z M 474.53125 -10.390625 "/></g></g></g><g fill="#32120e" fill-opacity="0.4"><g transform="translate(915.25795, 1391.559061)"><g><path d="M 239 15.015625 C 173.570312 15.015625 120.84375 -3.457031 80.8125 -40.40625 C 40.789062 -77.351562 20.78125 -126.234375 20.78125 -187.046875 C 20.78125 -247.847656 40.789062 -296.722656 80.8125 -333.671875 C 120.84375 -370.617188 173.570312 -389.09375 239 -389.09375 C 272.863281 -389.09375 304.613281 -381.972656 334.25 -367.734375 C 363.882812 -353.492188 386.015625 -335.984375 400.640625 -315.203125 L 413.34375 -315.203125 L 383.3125 -489.546875 C 375.625 -531.867188 360.617188 -564.765625 338.296875 -588.234375 C 315.972656 -611.710938 286.722656 -623.453125 250.546875 -623.453125 C 222.066406 -623.453125 199.742188 -616.523438 183.578125 -602.671875 C 167.410156 -588.816406 159.328125 -570.726562 159.328125 -548.40625 C 159.328125 -529.164062 165.484375 -513.96875 177.796875 -502.8125 C 190.117188 -491.65625 204.363281 -486.078125 220.53125 -486.078125 C 238.226562 -486.078125 252.65625 -490.691406 263.8125 -499.921875 C 274.976562 -509.148438 278.640625 -521.078125 274.796875 -535.703125 L 287.484375 -538.015625 C 291.335938 -533.398438 294.03125 -527.628906 295.5625 -520.703125 C 297.101562 -513.785156 297.875 -507.25 297.875 -501.09375 C 297.875 -478 289.019531 -456.828125 271.3125 -437.578125 C 253.613281 -418.335938 228.988281 -408.71875 197.4375 -408.71875 C 165.875 -408.71875 138.738281 -418.914062 116.03125 -439.3125 C 93.320312 -459.707031 81.96875 -484.523438 81.96875 -513.765625 C 81.96875 -539.941406 91.394531 -563.226562 110.25 -583.625 C 129.113281 -604.019531 154.320312 -620.179688 185.875 -632.109375 C 217.4375 -644.046875 252.847656 -650.015625 292.109375 -650.015625 C 374.460938 -650.015625 438.726562 -629.226562 484.90625 -587.65625 C 531.09375 -546.09375 560.726562 -488.753906 573.8125 -415.640625 L 614.21875 -182.421875 C 618.832031 -156.253906 625.953125 -135.085938 635.578125 -118.921875 C 645.203125 -102.753906 658.476562 -94.671875 675.40625 -94.671875 C 686.957031 -94.671875 695.8125 -98.710938 701.96875 -106.796875 C 708.125 -114.878906 712.742188 -125.078125 715.828125 -137.390625 L 727.375 -137.390625 C 724.289062 -95.828125 712.550781 -60.035156 692.15625 -30.015625 C 671.757812 0.00390625 641.546875 15.015625 601.515625 15.015625 C 560.722656 15.015625 528.015625 1.351562 503.390625 -25.96875 C 478.765625 -53.300781 462.988281 -86.976562 456.0625 -127 L 443.359375 -127 C 431.046875 -85.4375 406.414062 -51.375 369.46875 -24.8125 C 332.519531 1.738281 289.03125 15.015625 239 15.015625 Z M 316.359375 -61.1875 C 350.222656 -61.1875 378.316406 -74.078125 400.640625 -99.859375 C 422.960938 -125.648438 434.125 -158.175781 434.125 -197.4375 C 434.125 -235.914062 422.960938 -268.046875 400.640625 -293.828125 C 378.316406 -319.617188 350.222656 -332.515625 316.359375 -332.515625 C 280.953125 -332.515625 252.472656 -320.195312 230.921875 -295.5625 C 209.367188 -270.9375 198.59375 -238.226562 198.59375 -197.4375 C 198.59375 -157.40625 209.367188 -124.6875 230.921875 -99.28125 C 252.472656 -73.882812 280.953125 -61.1875 316.359375 -61.1875 Z M 316.359375 -61.1875 "/></g></g></g><g fill="#32120e" fill-opacity="0.4"><g transform="translate(1635.658345, 1391.559061)"><g><path d="M 220.53125 15.015625 C 171.257812 15.015625 133.15625 -0.957031 106.21875 -32.90625 C 79.28125 -64.851562 65.8125 -105.070312 65.8125 -153.5625 L 65.8125 -601.515625 C 65.8125 -645.390625 63.882812 -680.410156 60.03125 -706.578125 C 56.1875 -732.753906 51.378906 -752.769531 45.609375 -766.625 C 39.835938 -780.476562 33.488281 -790.484375 26.5625 -796.640625 L 26.5625 -808.1875 C 62.738281 -809.726562 100.066406 -814.921875 138.546875 -823.765625 C 177.035156 -832.617188 208.976562 -845.515625 234.375 -862.453125 L 245.921875 -862.453125 L 245.921875 -185.890625 C 246.691406 -158.953125 251.503906 -137.015625 260.359375 -120.078125 C 269.210938 -103.140625 282.101562 -94.671875 299.03125 -94.671875 C 310.582031 -94.671875 320.015625 -98.90625 327.328125 -107.375 C 334.640625 -115.84375 339.445312 -126.234375 341.75 -138.546875 L 353.296875 -136.234375 C 348.679688 -93.898438 336.175781 -58.109375 315.78125 -28.859375 C 295.382812 0.390625 263.632812 15.015625 220.53125 15.015625 Z M 220.53125 15.015625 "/></g></g></g><g fill="#f7de32" fill-opacity="1"><g transform="translate(30.534839, 1368.083479)"><g><path d="M 509.171875 15.015625 C 457.597656 15.015625 412.953125 3.660156 375.234375 -19.046875 C 337.515625 -41.753906 312.113281 -76.585938 299.03125 -123.546875 L 288.640625 -123.546875 L 288.640625 0 L 26.5625 0 L 26.5625 -13.859375 C 38.875 -28.484375 49.453125 -61.382812 58.296875 -112.5625 C 67.148438 -163.75 71.578125 -232.066406 71.578125 -317.515625 L 71.578125 -489.546875 C 71.578125 -575.742188 67.148438 -644.429688 58.296875 -695.609375 C 49.453125 -746.796875 38.875 -779.703125 26.5625 -794.328125 L 26.5625 -808.1875 L 509.171875 -808.1875 C 574.585938 -808.1875 623.265625 -796.832031 655.203125 -774.125 C 687.148438 -751.414062 703.125 -721.972656 703.125 -685.796875 C 703.125 -660.398438 694.269531 -639.039062 676.5625 -621.71875 C 658.863281 -604.40625 635.390625 -591.320312 606.140625 -582.46875 C 576.890625 -573.613281 544.953125 -569.1875 510.328125 -569.1875 L 483.765625 -569.1875 L 483.765625 -555.34375 L 509.171875 -555.34375 C 570.734375 -555.34375 626.53125 -544.179688 676.5625 -521.859375 C 726.59375 -499.546875 766.425781 -467.796875 796.0625 -426.609375 C 825.695312 -385.429688 840.515625 -336.363281 840.515625 -279.40625 C 840.515625 -226.289062 828.582031 -177.410156 804.71875 -132.765625 C 780.863281 -88.128906 744.492188 -52.335938 695.609375 -25.390625 C 646.734375 1.546875 584.585938 15.015625 509.171875 15.015625 Z M 289.796875 -576.125 L 374.078125 -576.125 C 408.722656 -576.125 435.28125 -585.9375 453.75 -605.5625 C 472.21875 -625.1875 481.453125 -649.238281 481.453125 -677.71875 C 481.453125 -704.65625 474.910156 -728.898438 461.828125 -750.453125 C 448.742188 -772.003906 427.578125 -782.78125 398.328125 -782.78125 L 289.796875 -782.78125 Z M 474.53125 -10.390625 C 518.394531 -10.390625 555.910156 -29.820312 587.078125 -68.6875 C 618.253906 -107.5625 633.84375 -161.640625 633.84375 -230.921875 C 633.84375 -267.097656 628.644531 -303.847656 618.25 -341.171875 C 607.863281 -378.503906 592.664062 -412.945312 572.65625 -444.5 C 552.644531 -476.0625 528.207031 -501.460938 499.34375 -520.703125 C 470.488281 -539.941406 437.203125 -549.5625 399.484375 -549.5625 L 288.640625 -549.5625 L 288.640625 -245.921875 L 297.875 -245.921875 C 304.039062 -278.253906 317.515625 -304.234375 338.296875 -323.859375 C 359.078125 -343.484375 382.550781 -353.296875 408.71875 -353.296875 C 434.125 -353.296875 454.90625 -346.945312 471.0625 -334.25 C 487.226562 -321.550781 499.347656 -305 507.421875 -284.59375 C 515.503906 -264.195312 519.546875 -242.457031 519.546875 -219.375 C 519.546875 -208.59375 517.816406 -195.3125 514.359375 -179.53125 C 510.898438 -163.757812 507.242188 -152.789062 503.390625 -146.625 L 490.703125 -146.625 C 492.234375 -161.25 490.691406 -176.257812 486.078125 -191.65625 C 481.460938 -207.050781 473.570312 -220.132812 462.40625 -230.90625 C 451.25 -241.6875 436.429688 -247.078125 417.953125 -247.078125 C 394.097656 -247.078125 375.050781 -237.265625 360.8125 -217.640625 C 346.570312 -198.015625 339.453125 -171.265625 339.453125 -137.390625 C 339.453125 -104.296875 351.957031 -74.851562 376.96875 -49.0625 C 401.988281 -23.28125 434.507812 -10.390625 474.53125 -10.390625 Z M 474.53125 -10.390625 "/></g></g></g><g fill="#f7de32" fill-opacity="1"><g transform="translate(891.782369, 1368.083479)"><g><path d="M 239 15.015625 C 173.570312 15.015625 120.84375 -3.457031 80.8125 -40.40625 C 40.789062 -77.351562 20.78125 -126.234375 20.78125 -187.046875 C 20.78125 -247.847656 40.789062 -296.722656 80.8125 -333.671875 C 120.84375 -370.617188 173.570312 -389.09375 239 -389.09375 C 272.863281 -389.09375 304.613281 -381.972656 334.25 -367.734375 C 363.882812 -353.492188 386.015625 -335.984375 400.640625 -315.203125 L 413.34375 -315.203125 L 383.3125 -489.546875 C 375.625 -531.867188 360.617188 -564.765625 338.296875 -588.234375 C 315.972656 -611.710938 286.722656 -623.453125 250.546875 -623.453125 C 222.066406 -623.453125 199.742188 -616.523438 183.578125 -602.671875 C 167.410156 -588.816406 159.328125 -570.726562 159.328125 -548.40625 C 159.328125 -529.164062 165.484375 -513.96875 177.796875 -502.8125 C 190.117188 -491.65625 204.363281 -486.078125 220.53125 -486.078125 C 238.226562 -486.078125 252.65625 -490.691406 263.8125 -499.921875 C 274.976562 -509.148438 278.640625 -521.078125 274.796875 -535.703125 L 287.484375 -538.015625 C 291.335938 -533.398438 294.03125 -527.628906 295.5625 -520.703125 C 297.101562 -513.785156 297.875 -507.25 297.875 -501.09375 C 297.875 -478 289.019531 -456.828125 271.3125 -437.578125 C 253.613281 -418.335938 228.988281 -408.71875 197.4375 -408.71875 C 165.875 -408.71875 138.738281 -418.914062 116.03125 -439.3125 C 93.320312 -459.707031 81.96875 -484.523438 81.96875 -513.765625 C 81.96875 -539.941406 91.394531 -563.226562 110.25 -583.625 C 129.113281 -604.019531 154.320312 -620.179688 185.875 -632.109375 C 217.4375 -644.046875 252.847656 -650.015625 292.109375 -650.015625 C 374.460938 -650.015625 438.726562 -629.226562 484.90625 -587.65625 C 531.09375 -546.09375 560.726562 -488.753906 573.8125 -415.640625 L 614.21875 -182.421875 C 618.832031 -156.253906 625.953125 -135.085938 635.578125 -118.921875 C 645.203125 -102.753906 658.476562 -94.671875 675.40625 -94.671875 C 686.957031 -94.671875 695.8125 -98.710938 701.96875 -106.796875 C 708.125 -114.878906 712.742188 -125.078125 715.828125 -137.390625 L 727.375 -137.390625 C 724.289062 -95.828125 712.550781 -60.035156 692.15625 -30.015625 C 671.757812 0.00390625 641.546875 15.015625 601.515625 15.015625 C 560.722656 15.015625 528.015625 1.351562 503.390625 -25.96875 C 478.765625 -53.300781 462.988281 -86.976562 456.0625 -127 L 443.359375 -127 C 431.046875 -85.4375 406.414062 -51.375 369.46875 -24.8125 C 332.519531 1.738281 289.03125 15.015625 239 15.015625 Z M 316.359375 -61.1875 C 350.222656 -61.1875 378.316406 -74.078125 400.640625 -99.859375 C 422.960938 -125.648438 434.125 -158.175781 434.125 -197.4375 C 434.125 -235.914062 422.960938 -268.046875 400.640625 -293.828125 C 378.316406 -319.617188 350.222656 -332.515625 316.359375 -332.515625 C 280.953125 -332.515625 252.472656 -320.195312 230.921875 -295.5625 C 209.367188 -270.9375 198.59375 -238.226562 198.59375 -197.4375 C 198.59375 -157.40625 209.367188 -124.6875 230.921875 -99.28125 C 252.472656 -73.882812 280.953125 -61.1875 316.359375 -61.1875 Z M 316.359375 -61.1875 "/></g></g></g><g fill="#f7de32" fill-opacity="1"><g transform="translate(1612.182764, 1368.083479)"><g><path d="M 220.53125 15.015625 C 171.257812 15.015625 133.15625 -0.957031 106.21875 -32.90625 C 79.28125 -64.851562 65.8125 -105.070312 65.8125 -153.5625 L 65.8125 -601.515625 C 65.8125 -645.390625 63.882812 -680.410156 60.03125 -706.578125 C 56.1875 -732.753906 51.378906 -752.769531 45.609375 -766.625 C 39.835938 -780.476562 33.488281 -790.484375 26.5625 -796.640625 L 26.5625 -808.1875 C 62.738281 -809.726562 100.066406 -814.921875 138.546875 -823.765625 C 177.035156 -832.617188 208.976562 -845.515625 234.375 -862.453125 L 245.921875 -862.453125 L 245.921875 -185.890625 C 246.691406 -158.953125 251.503906 -137.015625 260.359375 -120.078125 C 269.210938 -103.140625 282.101562 -94.671875 299.03125 -94.671875 C 310.582031 -94.671875 320.015625 -98.90625 327.328125 -107.375 C 334.640625 -115.84375 339.445312 -126.234375 341.75 -138.546875 L 353.296875 -136.234375 C 348.679688 -93.898438 336.175781 -58.109375 315.78125 -28.859375 C 295.382812 0.390625 263.632812 15.015625 220.53125 15.015625 Z M 220.53125 15.015625 "/></g></g></g><g fill="#32120e" fill-opacity="0.4"><g transform="translate(2000.138624, 1391.559061)"><g/></g></g><g fill="#32120e" fill-opacity="0.4"><g transform="translate(2339.557867, 1391.559061)"><g/></g></g><g fill="#32120e" fill-opacity="0.4"><g transform="translate(2678.977111, 1391.559061)"><g/></g></g><g fill="#f7de32" fill-opacity="1"><g transform="translate(1976.663043, 1368.083479)"><g/></g></g><g fill="#f7de32" fill-opacity="1"><g transform="translate(2316.082286, 1368.083479)"><g/></g></g><g fill="#f7de32" fill-opacity="1"><g transform="translate(2655.50153, 1368.083479)"><g/></g></g><g fill="#32120e" fill-opacity="0.4"><g transform="translate(3018.451686, 1391.559061)"><g><path d="M 28.859375 0 L 28.859375 -12.703125 C 39.640625 -27.328125 48.492188 -60.234375 55.421875 -111.421875 C 62.347656 -162.609375 65.8125 -230.148438 65.8125 -314.046875 L 65.8125 -391.40625 C 65.8125 -457.601562 61.960938 -504.550781 54.265625 -532.25 C 46.566406 -559.957031 37.332031 -578.429688 26.5625 -587.671875 L 26.5625 -599.203125 C 62.738281 -600.742188 100.257812 -605.75 139.125 -614.21875 C 178 -622.6875 209.75 -635.390625 234.375 -652.328125 L 247.078125 -652.328125 L 247.078125 -516.078125 L 259.78125 -516.078125 C 275.175781 -559.179688 301.15625 -592.28125 337.71875 -615.375 C 374.28125 -638.46875 416.804688 -650.015625 465.296875 -650.015625 C 513.773438 -650.015625 555.71875 -638.082031 591.125 -614.21875 C 626.53125 -590.351562 653.851562 -558.410156 673.09375 -518.390625 C 692.34375 -478.378906 701.96875 -434.125 701.96875 -385.625 L 701.96875 -310.578125 C 701.96875 -226.679688 705.625 -159.71875 712.9375 -109.6875 C 720.25 -59.65625 728.910156 -27.328125 738.921875 -12.703125 L 738.921875 0 L 482.609375 0 L 482.609375 -12.703125 C 493.390625 -27.328125 502.238281 -59.65625 509.15625 -109.6875 C 516.082031 -159.71875 519.546875 -226.679688 519.546875 -310.578125 L 519.546875 -400.640625 C 519.546875 -444.515625 507.039062 -481.648438 482.03125 -512.046875 C 457.019531 -542.441406 424.113281 -557.640625 383.3125 -557.640625 C 342.519531 -557.640625 309.613281 -542.828125 284.59375 -513.203125 C 259.582031 -483.578125 247.078125 -446.441406 247.078125 -401.796875 L 247.078125 -310.578125 C 247.078125 -226.679688 250.925781 -159.71875 258.625 -109.6875 C 266.320312 -59.65625 275.175781 -27.328125 285.1875 -12.703125 L 285.1875 0 Z M 28.859375 0 "/></g></g></g><g fill="#32120e" fill-opacity="0.4"><g transform="translate(3783.877205, 1391.559061)"><g><path d="M 398.328125 15.015625 C 346.753906 14.242188 298.257812 5.96875 252.84375 -9.8125 C 207.4375 -25.59375 167.414062 -48.109375 132.78125 -77.359375 C 98.144531 -106.609375 70.816406 -141.4375 50.796875 -181.84375 C 30.785156 -222.257812 20.78125 -267.484375 20.78125 -317.515625 C 20.78125 -384.472656 36.554688 -442.960938 68.109375 -492.984375 C 99.671875 -543.015625 142.582031 -581.691406 196.84375 -609.015625 C 251.113281 -636.347656 312.117188 -650.015625 379.859375 -650.015625 C 422.960938 -650.015625 465.867188 -643.46875 508.578125 -630.375 C 551.296875 -617.289062 586.894531 -599.59375 615.375 -577.28125 L 570.34375 -434.125 L 559.953125 -434.125 C 549.179688 -493.382812 528.976562 -539.945312 499.34375 -573.8125 C 469.71875 -607.675781 435.273438 -624.609375 396.015625 -624.609375 C 360.609375 -624.609375 328.664062 -610.753906 300.1875 -583.046875 C 271.707031 -555.335938 249 -518.96875 232.0625 -473.9375 C 215.132812 -428.914062 206.671875 -380.238281 206.671875 -327.90625 C 206.671875 -267.863281 217.253906 -214.171875 238.421875 -166.828125 C 259.585938 -119.492188 287.875 -81.972656 323.28125 -54.265625 C 358.6875 -26.554688 398.328125 -12.703125 442.203125 -12.703125 C 486.078125 -12.703125 519.554688 -23.476562 542.640625 -45.03125 C 565.734375 -66.582031 577.28125 -93.519531 577.28125 -125.84375 C 577.28125 -152.789062 569.582031 -173.957031 554.1875 -189.34375 C 538.789062 -204.738281 520.320312 -212.4375 498.78125 -212.4375 C 475.6875 -212.4375 457.976562 -204.738281 445.65625 -189.34375 C 433.34375 -173.957031 429.113281 -157.796875 432.96875 -140.859375 L 421.421875 -138.546875 C 416.035156 -145.472656 411.609375 -155.285156 408.140625 -167.984375 C 404.679688 -180.691406 402.953125 -192.046875 402.953125 -202.046875 C 402.953125 -237.453125 414.6875 -268.046875 438.15625 -293.828125 C 461.632812 -319.617188 495.304688 -332.515625 539.171875 -332.515625 C 566.109375 -332.515625 590.160156 -325.972656 611.328125 -312.890625 C 632.492188 -299.804688 649.234375 -282.296875 661.546875 -260.359375 C 673.867188 -238.421875 680.03125 -213.984375 680.03125 -187.046875 C 680.03125 -144.710938 667.328125 -108.34375 641.921875 -77.9375 C 616.523438 -47.53125 582.46875 -24.4375 539.75 -8.65625 C 497.039062 7.125 449.898438 15.015625 398.328125 15.015625 Z M 398.328125 15.015625 "/></g></g></g><g fill="#32120e" fill-opacity="0.4"><g transform="translate(4484.651322, 1391.559061)"><g><path d="M 413.34375 15.015625 C 364.082031 15.015625 315.972656 7.703125 269.015625 -6.921875 C 222.066406 -21.546875 179.925781 -42.90625 142.59375 -71 C 105.257812 -99.101562 75.625 -133.9375 53.6875 -175.5 C 31.75 -217.0625 20.78125 -264.398438 20.78125 -317.515625 C 20.78125 -384.472656 35.789062 -442.960938 65.8125 -492.984375 C 95.832031 -543.015625 138.164062 -581.691406 192.8125 -609.015625 C 247.46875 -636.347656 311.738281 -650.015625 385.625 -650.015625 C 481.0625 -650.015625 552.0625 -633.847656 598.625 -601.515625 C 645.195312 -569.191406 668.484375 -529.554688 668.484375 -482.609375 C 668.484375 -447.972656 655.203125 -420.070312 628.640625 -398.90625 C 602.085938 -377.738281 566.492188 -362.34375 521.859375 -352.71875 C 477.222656 -343.101562 427.382812 -338.101562 372.34375 -337.71875 C 317.3125 -337.332031 261.316406 -340.988281 204.359375 -348.6875 C 203.585938 -345.601562 203.203125 -340.597656 203.203125 -333.671875 C 203.203125 -272.097656 213.785156 -216.867188 234.953125 -167.984375 C 256.117188 -119.109375 285.753906 -80.816406 323.859375 -53.109375 C 361.960938 -25.398438 406.03125 -11.546875 456.0625 -11.546875 C 496.84375 -11.546875 528.78125 -21.550781 551.875 -41.5625 C 574.96875 -61.570312 586.515625 -86.972656 586.515625 -117.765625 C 586.515625 -143.171875 579.394531 -162.992188 565.15625 -177.234375 C 550.914062 -191.472656 533.785156 -198.59375 513.765625 -198.59375 C 491.453125 -198.59375 474.332031 -191.472656 462.40625 -177.234375 C 450.476562 -162.992188 446.4375 -148.175781 450.28125 -132.78125 L 437.578125 -131.625 C 432.191406 -137.78125 427.957031 -147.207031 424.875 -159.90625 C 421.800781 -172.601562 420.265625 -183.570312 420.265625 -192.8125 C 420.265625 -226.675781 431.8125 -255.925781 454.90625 -280.5625 C 478 -305.195312 510.707031 -317.515625 553.03125 -317.515625 C 593.050781 -317.515625 625.566406 -303.847656 650.578125 -276.515625 C 675.597656 -249.191406 688.109375 -216.289062 688.109375 -177.8125 C 688.109375 -141.632812 677.140625 -108.921875 655.203125 -79.671875 C 633.265625 -50.421875 601.707031 -27.328125 560.53125 -10.390625 C 519.363281 6.546875 470.300781 15.015625 413.34375 15.015625 Z M 204.359375 -371.78125 C 265.171875 -367.15625 320.207031 -368.691406 369.46875 -376.390625 C 418.726562 -384.085938 457.785156 -398.519531 486.640625 -419.6875 C 515.503906 -440.851562 529.9375 -467.988281 529.9375 -501.09375 C 529.164062 -534.945312 518.195312 -563.992188 497.03125 -588.234375 C 475.875 -612.484375 441.816406 -624.609375 394.859375 -624.609375 C 344.828125 -624.609375 301.914062 -601.90625 266.125 -556.5 C 230.332031 -511.09375 209.742188 -449.519531 204.359375 -371.78125 Z M 204.359375 -371.78125 "/></g></g></g><g fill="#f7de32" fill-opacity="1"><g transform="translate(2994.976105, 1368.083479)"><g><path d="M 28.859375 0 L 28.859375 -12.703125 C 39.640625 -27.328125 48.492188 -60.234375 55.421875 -111.421875 C 62.347656 -162.609375 65.8125 -230.148438 65.8125 -314.046875 L 65.8125 -391.40625 C 65.8125 -457.601562 61.960938 -504.550781 54.265625 -532.25 C 46.566406 -559.957031 37.332031 -578.429688 26.5625 -587.671875 L 26.5625 -599.203125 C 62.738281 -600.742188 100.257812 -605.75 139.125 -614.21875 C 178 -622.6875 209.75 -635.390625 234.375 -652.328125 L 247.078125 -652.328125 L 247.078125 -516.078125 L 259.78125 -516.078125 C 275.175781 -559.179688 301.15625 -592.28125 337.71875 -615.375 C 374.28125 -638.46875 416.804688 -650.015625 465.296875 -650.015625 C 513.773438 -650.015625 555.71875 -638.082031 591.125 -614.21875 C 626.53125 -590.351562 653.851562 -558.410156 673.09375 -518.390625 C 692.34375 -478.378906 701.96875 -434.125 701.96875 -385.625 L 701.96875 -310.578125 C 701.96875 -226.679688 705.625 -159.71875 712.9375 -109.6875 C 720.25 -59.65625 728.910156 -27.328125 738.921875 -12.703125 L 738.921875 0 L 482.609375 0 L 482.609375 -12.703125 C 493.390625 -27.328125 502.238281 -59.65625 509.15625 -109.6875 C 516.082031 -159.71875 519.546875 -226.679688 519.546875 -310.578125 L 519.546875 -400.640625 C 519.546875 -444.515625 507.039062 -481.648438 482.03125 -512.046875 C 457.019531 -542.441406 424.113281 -557.640625 383.3125 -557.640625 C 342.519531 -557.640625 309.613281 -542.828125 284.59375 -513.203125 C 259.582031 -483.578125 247.078125 -446.441406 247.078125 -401.796875 L 247.078125 -310.578125 C 247.078125 -226.679688 250.925781 -159.71875 258.625 -109.6875 C 266.320312 -59.65625 275.175781 -27.328125 285.1875 -12.703125 L 285.1875 0 Z M 28.859375 0 "/></g></g></g><g fill="#f7de32" fill-opacity="1"><g transform="translate(3760.401624, 1368.083479)"><g><path d="M 398.328125 15.015625 C 346.753906 14.242188 298.257812 5.96875 252.84375 -9.8125 C 207.4375 -25.59375 167.414062 -48.109375 132.78125 -77.359375 C 98.144531 -106.609375 70.816406 -141.4375 50.796875 -181.84375 C 30.785156 -222.257812 20.78125 -267.484375 20.78125 -317.515625 C 20.78125 -384.472656 36.554688 -442.960938 68.109375 -492.984375 C 99.671875 -543.015625 142.582031 -581.691406 196.84375 -609.015625 C 251.113281 -636.347656 312.117188 -650.015625 379.859375 -650.015625 C 422.960938 -650.015625 465.867188 -643.46875 508.578125 -630.375 C 551.296875 -617.289062 586.894531 -599.59375 615.375 -577.28125 L 570.34375 -434.125 L 559.953125 -434.125 C 549.179688 -493.382812 528.976562 -539.945312 499.34375 -573.8125 C 469.71875 -607.675781 435.273438 -624.609375 396.015625 -624.609375 C 360.609375 -624.609375 328.664062 -610.753906 300.1875 -583.046875 C 271.707031 -555.335938 249 -518.96875 232.0625 -473.9375 C 215.132812 -428.914062 206.671875 -380.238281 206.671875 -327.90625 C 206.671875 -267.863281 217.253906 -214.171875 238.421875 -166.828125 C 259.585938 -119.492188 287.875 -81.972656 323.28125 -54.265625 C 358.6875 -26.554688 398.328125 -12.703125 442.203125 -12.703125 C 486.078125 -12.703125 519.554688 -23.476562 542.640625 -45.03125 C 565.734375 -66.582031 577.28125 -93.519531 577.28125 -125.84375 C 577.28125 -152.789062 569.582031 -173.957031 554.1875 -189.34375 C 538.789062 -204.738281 520.320312 -212.4375 498.78125 -212.4375 C 475.6875 -212.4375 457.976562 -204.738281 445.65625 -189.34375 C 433.34375 -173.957031 429.113281 -157.796875 432.96875 -140.859375 L 421.421875 -138.546875 C 416.035156 -145.472656 411.609375 -155.285156 408.140625 -167.984375 C 404.679688 -180.691406 402.953125 -192.046875 402.953125 -202.046875 C 402.953125 -237.453125 414.6875 -268.046875 438.15625 -293.828125 C 461.632812 -319.617188 495.304688 -332.515625 539.171875 -332.515625 C 566.109375 -332.515625 590.160156 -325.972656 611.328125 -312.890625 C 632.492188 -299.804688 649.234375 -282.296875 661.546875 -260.359375 C 673.867188 -238.421875 680.03125 -213.984375 680.03125 -187.046875 C 680.03125 -144.710938 667.328125 -108.34375 641.921875 -77.9375 C 616.523438 -47.53125 582.46875 -24.4375 539.75 -8.65625 C 497.039062 7.125 449.898438 15.015625 398.328125 15.015625 Z M 398.328125 15.015625 "/></g></g></g><g fill="#f7de32" fill-opacity="1"><g transform="translate(4461.175741, 1368.083479)"><g><path d="M 413.34375 15.015625 C 364.082031 15.015625 315.972656 7.703125 269.015625 -6.921875 C 222.066406 -21.546875 179.925781 -42.90625 142.59375 -71 C 105.257812 -99.101562 75.625 -133.9375 53.6875 -175.5 C 31.75 -217.0625 20.78125 -264.398438 20.78125 -317.515625 C 20.78125 -384.472656 35.789062 -442.960938 65.8125 -492.984375 C 95.832031 -543.015625 138.164062 -581.691406 192.8125 -609.015625 C 247.46875 -636.347656 311.738281 -650.015625 385.625 -650.015625 C 481.0625 -650.015625 552.0625 -633.847656 598.625 -601.515625 C 645.195312 -569.191406 668.484375 -529.554688 668.484375 -482.609375 C 668.484375 -447.972656 655.203125 -420.070312 628.640625 -398.90625 C 602.085938 -377.738281 566.492188 -362.34375 521.859375 -352.71875 C 477.222656 -343.101562 427.382812 -338.101562 372.34375 -337.71875 C 317.3125 -337.332031 261.316406 -340.988281 204.359375 -348.6875 C 203.585938 -345.601562 203.203125 -340.597656 203.203125 -333.671875 C 203.203125 -272.097656 213.785156 -216.867188 234.953125 -167.984375 C 256.117188 -119.109375 285.753906 -80.816406 323.859375 -53.109375 C 361.960938 -25.398438 406.03125 -11.546875 456.0625 -11.546875 C 496.84375 -11.546875 528.78125 -21.550781 551.875 -41.5625 C 574.96875 -61.570312 586.515625 -86.972656 586.515625 -117.765625 C 586.515625 -143.171875 579.394531 -162.992188 565.15625 -177.234375 C 550.914062 -191.472656 533.785156 -198.59375 513.765625 -198.59375 C 491.453125 -198.59375 474.332031 -191.472656 462.40625 -177.234375 C 450.476562 -162.992188 446.4375 -148.175781 450.28125 -132.78125 L 437.578125 -131.625 C 432.191406 -137.78125 427.957031 -147.207031 424.875 -159.90625 C 421.800781 -172.601562 420.265625 -183.570312 420.265625 -192.8125 C 420.265625 -226.675781 431.8125 -255.925781 454.90625 -280.5625 C 478 -305.195312 510.707031 -317.515625 553.03125 -317.515625 C 593.050781 -317.515625 625.566406 -303.847656 650.578125 -276.515625 C 675.597656 -249.191406 688.109375 -216.289062 688.109375 -177.8125 C 688.109375 -141.632812 677.140625 -108.921875 655.203125 -79.671875 C 633.265625 -50.421875 601.707031 -27.328125 560.53125 -10.390625 C 519.363281 6.546875 470.300781 15.015625 413.34375 15.015625 Z M 204.359375 -371.78125 C 265.171875 -367.15625 320.207031 -368.691406 369.46875 -376.390625 C 418.726562 -384.085938 457.785156 -398.519531 486.640625 -419.6875 C 515.503906 -440.851562 529.9375 -467.988281 529.9375 -501.09375 C 529.164062 -534.945312 518.195312 -563.992188 497.03125 -588.234375 C 475.875 -612.484375 441.816406 -624.609375 394.859375 -624.609375 C 344.828125 -624.609375 301.914062 -601.90625 266.125 -556.5 C 230.332031 -511.09375 209.742188 -449.519531 204.359375 -371.78125 Z M 204.359375 -371.78125 "/></g></g></g><g clip-path="url(#83a844116b)"><path fill="#ff3131" d="M 2516.710938 1083.75 C 2072.042969 1768.160156 1792.738281 909.152344 2512.445312 1070.722656 C 1747.015625 868.878906 2499.179688 332.535156 2523.578125 1062.667969 C 2563.140625 248.90625 3254.421875 909.152344 2534.714844 1070.722656 C 3311.753906 933.554688 2975.351562 1768.160156 2530.449219 1083.75 C 2951.425781 1734.285156 2071.808594 1768.160156 2516.710938 1083.75 Z M 2516.710938 1083.75 " fill-opacity="1" fill-rule="nonzero"/></g><g fill="#f7de32" fill-opacity="1"><g transform="translate(5377.363967, 804.490248)"><g><path d="M 18.46875 -22.171875 L -144.734375 -158.125 L -127.59375 -178.6875 L 17.328125 -57.96875 L 76.71875 -129.28125 L 95 -114.046875 Z M 18.46875 -22.171875 "/></g></g></g><g fill="#f7de32" fill-opacity="1"><g transform="translate(5496.648991, 673.673339)"><g><path d="M 75.5 -46.453125 L 10.140625 -6.234375 L 2.03125 -19.40625 L 20.34375 -37.3125 L -68.65625 -181.984375 L -93.0625 -173.953125 L -101.171875 -187.140625 L -35.8125 -227.359375 L -27.703125 -214.171875 L -45.859375 -196.015625 L 43.140625 -51.34375 L 67.390625 -59.625 Z M 75.5 -46.453125 "/></g></g></g><g fill="#f7de32" fill-opacity="1"><g transform="translate(5601.315369, 608.422539)"><g><path d="M 54.1875 -12.59375 L 28.109375 -6.53125 L -19.984375 -213.421875 L 95.625 -240.296875 L 100.953125 -217.40625 L 11.421875 -196.59375 L 28.453125 -123.28125 L 112.484375 -142.8125 L 117.8125 -119.921875 L 33.78125 -100.390625 Z M 54.1875 -12.59375 "/></g></g></g><g fill="#f7de32" fill-opacity="1"><g transform="translate(5770.14233, 571.715524)"><g><path d="M 145.765625 22.84375 L 28.515625 4.46875 L 61.390625 -205.375 L 178.640625 -187 L 175 -163.78125 L 84.1875 -178.015625 L 73.921875 -112.46875 L 159.453125 -99.0625 L 155.859375 -76.140625 L 70.328125 -89.546875 L 58.59375 -14.609375 L 149.40625 -0.375 Z M 145.765625 22.84375 "/></g></g></g><g clip-path="url(#f8872a4a08)"><path stroke-linecap="butt" transform="matrix(16.428691, 0, 0, 16.428691, 5298.251066, 281.59685)" fill="none" stroke-linejoin="miter" d="M 21.381403 68.424311 L 21.381403 67.672245 C 22.087342 66.372594 22.56835 63.482024 22.824191 59.00006 L 0.184207 59.00006 L -0.122754 58.247993 L 24.712085 24.418315 L 29.547138 24.418315 L 29.547138 55.66914 L 36.653608 55.66914 L 35.840196 59.00006 L 29.731172 59.00006 C 29.987012 63.482024 30.473014 66.372594 31.189415 67.672245 L 31.189415 68.424311 Z M 4.282411 55.66914 L 23.008225 55.66914 L 23.008225 30.266506 L 22.639919 30.266506 L 4.144266 55.285617 Z M 4.282411 55.66914 " stroke="#43d0c7" stroke-width="4.715588" stroke-opacity="1" stroke-miterlimit="4"/></g><g fill="#43d0c7" fill-opacity="1"><g transform="translate(5298.251066, 1250.889645)"><g><path d="M 351.171875 154.9375 L 351.171875 142.53125 C 362.878906 121.1875 370.800781 73.675781 374.9375 0 L 3.09375 0 L -2.0625 -12.390625 L 405.921875 -568.078125 L 485.453125 -568.078125 L 485.453125 -54.75 L 602.171875 -54.75 L 588.734375 0 L 488.546875 0 C 492.679688 73.675781 500.601562 121.1875 512.3125 142.53125 L 512.3125 154.9375 Z M 70.234375 -54.75 L 378.03125 -54.75 L 378.03125 -472.03125 L 371.828125 -472.03125 L 68.171875 -60.9375 Z M 70.234375 -54.75 "/></g></g></g></svg>