<svg xmlns="http://www.w3.org/2000/svg" xmlns:xlink="http://www.w3.org/1999/xlink" width="1920" zoomAndPan="magnify" viewBox="0 0 1440 809.999993" height="1080" preserveAspectRatio="xMidYMid meet" version="1.0"><defs><g/><clipPath id="29ccd3b7fc"><path d="M 458.675781 368.816406 L 620.675781 368.816406 L 620.675781 529.316406 L 458.675781 529.316406 Z M 458.675781 368.816406 " clip-rule="nonzero"/></clipPath></defs><rect x="-144" width="1728" fill="#ffffff" y="-80.999999" height="971.999992" fill-opacity="1"/><rect x="-144" width="1728" fill="#ffffff" y="-80.999999" height="971.999992" fill-opacity="1"/><g fill="#32120e" fill-opacity="0.4"><g transform="translate(20.895555, 506.459029)"><g><path d="M 109.703125 3.234375 C 98.585938 3.234375 88.96875 0.789062 80.84375 -4.09375 C 72.71875 -8.988281 67.242188 -16.492188 64.421875 -26.609375 L 62.1875 -26.609375 L 62.1875 0 L 5.71875 0 L 5.71875 -2.984375 C 8.375 -6.140625 10.65625 -13.226562 12.5625 -24.25 C 14.46875 -35.28125 15.421875 -50 15.421875 -68.40625 L 15.421875 -105.46875 C 15.421875 -124.039062 14.46875 -138.835938 12.5625 -149.859375 C 10.65625 -160.890625 8.375 -167.984375 5.71875 -171.140625 L 5.71875 -174.125 L 109.703125 -174.125 C 123.796875 -174.125 134.28125 -171.675781 141.15625 -166.78125 C 148.039062 -161.894531 151.484375 -155.550781 151.484375 -147.75 C 151.484375 -142.28125 149.578125 -137.679688 145.765625 -133.953125 C 141.953125 -130.222656 136.894531 -127.40625 130.59375 -125.5 C 124.289062 -123.59375 117.410156 -122.640625 109.953125 -122.640625 L 104.21875 -122.640625 L 104.21875 -119.65625 L 109.703125 -119.65625 C 122.960938 -119.65625 134.984375 -117.25 145.765625 -112.4375 C 156.546875 -107.625 165.128906 -100.78125 171.515625 -91.90625 C 177.898438 -83.039062 181.09375 -72.472656 181.09375 -60.203125 C 181.09375 -48.753906 178.519531 -38.21875 173.375 -28.59375 C 168.238281 -18.976562 160.40625 -11.269531 149.875 -5.46875 C 139.34375 0.332031 125.953125 3.234375 109.703125 3.234375 Z M 62.4375 -124.125 L 80.59375 -124.125 C 88.050781 -124.125 93.769531 -126.238281 97.75 -130.46875 C 101.738281 -134.695312 103.734375 -139.878906 103.734375 -146.015625 C 103.734375 -151.816406 102.320312 -157.039062 99.5 -161.6875 C 96.675781 -166.332031 92.113281 -168.65625 85.8125 -168.65625 L 62.4375 -168.65625 Z M 102.234375 -2.234375 C 111.691406 -2.234375 119.773438 -6.421875 126.484375 -14.796875 C 133.203125 -23.171875 136.5625 -34.820312 136.5625 -49.75 C 136.5625 -57.539062 135.441406 -65.457031 133.203125 -73.5 C 130.960938 -81.539062 127.6875 -88.960938 123.375 -95.765625 C 119.0625 -102.566406 113.796875 -108.039062 107.578125 -112.1875 C 101.359375 -116.332031 94.1875 -118.40625 86.0625 -118.40625 L 62.1875 -118.40625 L 62.1875 -52.984375 L 64.171875 -52.984375 C 65.503906 -59.953125 68.40625 -65.550781 72.875 -69.78125 C 77.351562 -74.007812 82.414062 -76.125 88.0625 -76.125 C 93.53125 -76.125 98.003906 -74.753906 101.484375 -72.015625 C 104.972656 -69.273438 107.585938 -65.707031 109.328125 -61.3125 C 111.066406 -56.914062 111.9375 -52.234375 111.9375 -47.265625 C 111.9375 -44.941406 111.5625 -42.078125 110.8125 -38.671875 C 110.070312 -35.273438 109.285156 -32.914062 108.453125 -31.59375 L 105.71875 -31.59375 C 106.050781 -34.738281 105.71875 -37.96875 104.71875 -41.28125 C 103.726562 -44.601562 102.03125 -47.425781 99.625 -49.75 C 97.21875 -52.070312 94.023438 -53.234375 90.046875 -53.234375 C 84.910156 -53.234375 80.804688 -51.117188 77.734375 -46.890625 C 74.660156 -42.660156 73.125 -36.894531 73.125 -29.59375 C 73.125 -22.46875 75.816406 -16.125 81.203125 -10.5625 C 86.597656 -5.007812 93.609375 -2.234375 102.234375 -2.234375 Z M 102.234375 -2.234375 "/></g></g></g><g fill="#32120e" fill-opacity="0.4"><g transform="translate(206.446135, 506.459029)"><g><path d="M 51.484375 3.234375 C 37.390625 3.234375 26.03125 -0.742188 17.40625 -8.703125 C 8.789062 -16.660156 4.484375 -27.191406 4.484375 -40.296875 C 4.484375 -53.398438 8.789062 -63.929688 17.40625 -71.890625 C 26.03125 -79.847656 37.390625 -83.828125 51.484375 -83.828125 C 58.785156 -83.828125 65.628906 -82.289062 72.015625 -79.21875 C 78.398438 -76.15625 83.164062 -72.382812 86.3125 -67.90625 L 89.046875 -67.90625 L 82.578125 -105.46875 C 80.921875 -114.59375 77.6875 -121.679688 72.875 -126.734375 C 68.070312 -131.796875 61.773438 -134.328125 53.984375 -134.328125 C 47.847656 -134.328125 43.035156 -132.832031 39.546875 -129.84375 C 36.066406 -126.863281 34.328125 -122.96875 34.328125 -118.15625 C 34.328125 -114.007812 35.648438 -110.734375 38.296875 -108.328125 C 40.953125 -105.921875 44.023438 -104.71875 47.515625 -104.71875 C 51.328125 -104.71875 54.4375 -105.710938 56.84375 -107.703125 C 59.25 -109.691406 60.035156 -112.265625 59.203125 -115.421875 L 61.9375 -115.921875 C 62.769531 -114.921875 63.347656 -113.675781 63.671875 -112.1875 C 64.003906 -110.695312 64.171875 -109.285156 64.171875 -107.953125 C 64.171875 -102.984375 62.265625 -98.425781 58.453125 -94.28125 C 54.640625 -90.132812 49.332031 -88.0625 42.53125 -88.0625 C 35.738281 -88.0625 29.894531 -90.253906 25 -94.640625 C 20.101562 -99.035156 17.65625 -104.382812 17.65625 -110.6875 C 17.65625 -116.332031 19.6875 -121.347656 23.75 -125.734375 C 27.8125 -130.128906 33.242188 -133.613281 40.046875 -136.1875 C 46.847656 -138.757812 54.476562 -140.046875 62.9375 -140.046875 C 80.675781 -140.046875 94.519531 -135.566406 104.46875 -126.609375 C 114.425781 -117.660156 120.8125 -105.304688 123.625 -89.546875 L 132.328125 -39.296875 C 133.328125 -33.660156 134.863281 -29.097656 136.9375 -25.609375 C 139.007812 -22.128906 141.867188 -20.390625 145.515625 -20.390625 C 148.003906 -20.390625 149.910156 -21.257812 151.234375 -23 C 152.566406 -24.75 153.5625 -26.945312 154.21875 -29.59375 L 156.71875 -29.59375 C 156.050781 -20.644531 153.519531 -12.9375 149.125 -6.46875 C 144.726562 0 138.21875 3.234375 129.59375 3.234375 C 120.8125 3.234375 113.765625 0.289062 108.453125 -5.59375 C 103.148438 -11.476562 99.75 -18.734375 98.25 -27.359375 L 95.515625 -27.359375 C 92.867188 -18.410156 87.5625 -11.070312 79.59375 -5.34375 C 71.632812 0.375 62.265625 3.234375 51.484375 3.234375 Z M 68.15625 -13.1875 C 75.457031 -13.1875 81.507812 -15.960938 86.3125 -21.515625 C 91.125 -27.066406 93.53125 -34.070312 93.53125 -42.53125 C 93.53125 -50.820312 91.125 -57.742188 86.3125 -63.296875 C 81.507812 -68.859375 75.457031 -71.640625 68.15625 -71.640625 C 60.53125 -71.640625 54.394531 -68.984375 49.75 -63.671875 C 45.101562 -58.367188 42.78125 -51.320312 42.78125 -42.53125 C 42.78125 -33.90625 45.101562 -26.859375 49.75 -21.390625 C 54.394531 -15.921875 60.53125 -13.1875 68.15625 -13.1875 Z M 68.15625 -13.1875 "/></g></g></g><g fill="#32120e" fill-opacity="0.4"><g transform="translate(361.652051, 506.459029)"><g><path d="M 47.515625 3.234375 C 36.898438 3.234375 28.6875 -0.203125 22.875 -7.078125 C 17.070312 -13.960938 14.171875 -22.628906 14.171875 -33.078125 L 14.171875 -129.59375 C 14.171875 -139.050781 13.753906 -146.597656 12.921875 -152.234375 C 12.097656 -157.867188 11.0625 -162.175781 9.8125 -165.15625 C 8.570312 -168.144531 7.207031 -170.304688 5.71875 -171.640625 L 5.71875 -174.125 C 13.507812 -174.457031 21.550781 -175.578125 29.84375 -177.484375 C 38.132812 -179.390625 45.019531 -182.164062 50.5 -185.8125 L 52.984375 -185.8125 L 52.984375 -40.046875 C 53.148438 -34.242188 54.1875 -29.515625 56.09375 -25.859375 C 58 -22.210938 60.773438 -20.390625 64.421875 -20.390625 C 66.910156 -20.390625 68.941406 -21.300781 70.515625 -23.125 C 72.097656 -24.957031 73.132812 -27.195312 73.625 -29.84375 L 76.125 -29.359375 C 75.125 -20.234375 72.425781 -12.519531 68.03125 -6.21875 C 63.632812 0.0820312 56.796875 3.234375 47.515625 3.234375 Z M 47.515625 3.234375 "/></g></g></g><g fill="#f7de32" fill-opacity="1"><g transform="translate(15.837881, 501.401363)"><g><path d="M 109.703125 3.234375 C 98.585938 3.234375 88.96875 0.789062 80.84375 -4.09375 C 72.71875 -8.988281 67.242188 -16.492188 64.421875 -26.609375 L 62.1875 -26.609375 L 62.1875 0 L 5.71875 0 L 5.71875 -2.984375 C 8.375 -6.140625 10.65625 -13.226562 12.5625 -24.25 C 14.46875 -35.28125 15.421875 -50 15.421875 -68.40625 L 15.421875 -105.46875 C 15.421875 -124.039062 14.46875 -138.835938 12.5625 -149.859375 C 10.65625 -160.890625 8.375 -167.984375 5.71875 -171.140625 L 5.71875 -174.125 L 109.703125 -174.125 C 123.796875 -174.125 134.28125 -171.675781 141.15625 -166.78125 C 148.039062 -161.894531 151.484375 -155.550781 151.484375 -147.75 C 151.484375 -142.28125 149.578125 -137.679688 145.765625 -133.953125 C 141.953125 -130.222656 136.894531 -127.40625 130.59375 -125.5 C 124.289062 -123.59375 117.410156 -122.640625 109.953125 -122.640625 L 104.21875 -122.640625 L 104.21875 -119.65625 L 109.703125 -119.65625 C 122.960938 -119.65625 134.984375 -117.25 145.765625 -112.4375 C 156.546875 -107.625 165.128906 -100.78125 171.515625 -91.90625 C 177.898438 -83.039062 181.09375 -72.472656 181.09375 -60.203125 C 181.09375 -48.753906 178.519531 -38.21875 173.375 -28.59375 C 168.238281 -18.976562 160.40625 -11.269531 149.875 -5.46875 C 139.34375 0.332031 125.953125 3.234375 109.703125 3.234375 Z M 62.4375 -124.125 L 80.59375 -124.125 C 88.050781 -124.125 93.769531 -126.238281 97.75 -130.46875 C 101.738281 -134.695312 103.734375 -139.878906 103.734375 -146.015625 C 103.734375 -151.816406 102.320312 -157.039062 99.5 -161.6875 C 96.675781 -166.332031 92.113281 -168.65625 85.8125 -168.65625 L 62.4375 -168.65625 Z M 102.234375 -2.234375 C 111.691406 -2.234375 119.773438 -6.421875 126.484375 -14.796875 C 133.203125 -23.171875 136.5625 -34.820312 136.5625 -49.75 C 136.5625 -57.539062 135.441406 -65.457031 133.203125 -73.5 C 130.960938 -81.539062 127.6875 -88.960938 123.375 -95.765625 C 119.0625 -102.566406 113.796875 -108.039062 107.578125 -112.1875 C 101.359375 -116.332031 94.1875 -118.40625 86.0625 -118.40625 L 62.1875 -118.40625 L 62.1875 -52.984375 L 64.171875 -52.984375 C 65.503906 -59.953125 68.40625 -65.550781 72.875 -69.78125 C 77.351562 -74.007812 82.414062 -76.125 88.0625 -76.125 C 93.53125 -76.125 98.003906 -74.753906 101.484375 -72.015625 C 104.972656 -69.273438 107.585938 -65.707031 109.328125 -61.3125 C 111.066406 -56.914062 111.9375 -52.234375 111.9375 -47.265625 C 111.9375 -44.941406 111.5625 -42.078125 110.8125 -38.671875 C 110.070312 -35.273438 109.285156 -32.914062 108.453125 -31.59375 L 105.71875 -31.59375 C 106.050781 -34.738281 105.71875 -37.96875 104.71875 -41.28125 C 103.726562 -44.601562 102.03125 -47.425781 99.625 -49.75 C 97.21875 -52.070312 94.023438 -53.234375 90.046875 -53.234375 C 84.910156 -53.234375 80.804688 -51.117188 77.734375 -46.890625 C 74.660156 -42.660156 73.125 -36.894531 73.125 -29.59375 C 73.125 -22.46875 75.816406 -16.125 81.203125 -10.5625 C 86.597656 -5.007812 93.609375 -2.234375 102.234375 -2.234375 Z M 102.234375 -2.234375 "/></g></g></g><g fill="#f7de32" fill-opacity="1"><g transform="translate(201.388462, 501.401363)"><g><path d="M 51.484375 3.234375 C 37.390625 3.234375 26.03125 -0.742188 17.40625 -8.703125 C 8.789062 -16.660156 4.484375 -27.191406 4.484375 -40.296875 C 4.484375 -53.398438 8.789062 -63.929688 17.40625 -71.890625 C 26.03125 -79.847656 37.390625 -83.828125 51.484375 -83.828125 C 58.785156 -83.828125 65.628906 -82.289062 72.015625 -79.21875 C 78.398438 -76.15625 83.164062 -72.382812 86.3125 -67.90625 L 89.046875 -67.90625 L 82.578125 -105.46875 C 80.921875 -114.59375 77.6875 -121.679688 72.875 -126.734375 C 68.070312 -131.796875 61.773438 -134.328125 53.984375 -134.328125 C 47.847656 -134.328125 43.035156 -132.832031 39.546875 -129.84375 C 36.066406 -126.863281 34.328125 -122.96875 34.328125 -118.15625 C 34.328125 -114.007812 35.648438 -110.734375 38.296875 -108.328125 C 40.953125 -105.921875 44.023438 -104.71875 47.515625 -104.71875 C 51.328125 -104.71875 54.4375 -105.710938 56.84375 -107.703125 C 59.25 -109.691406 60.035156 -112.265625 59.203125 -115.421875 L 61.9375 -115.921875 C 62.769531 -114.921875 63.347656 -113.675781 63.671875 -112.1875 C 64.003906 -110.695312 64.171875 -109.285156 64.171875 -107.953125 C 64.171875 -102.984375 62.265625 -98.425781 58.453125 -94.28125 C 54.640625 -90.132812 49.332031 -88.0625 42.53125 -88.0625 C 35.738281 -88.0625 29.894531 -90.253906 25 -94.640625 C 20.101562 -99.035156 17.65625 -104.382812 17.65625 -110.6875 C 17.65625 -116.332031 19.6875 -121.347656 23.75 -125.734375 C 27.8125 -130.128906 33.242188 -133.613281 40.046875 -136.1875 C 46.847656 -138.757812 54.476562 -140.046875 62.9375 -140.046875 C 80.675781 -140.046875 94.519531 -135.566406 104.46875 -126.609375 C 114.425781 -117.660156 120.8125 -105.304688 123.625 -89.546875 L 132.328125 -39.296875 C 133.328125 -33.660156 134.863281 -29.097656 136.9375 -25.609375 C 139.007812 -22.128906 141.867188 -20.390625 145.515625 -20.390625 C 148.003906 -20.390625 149.910156 -21.257812 151.234375 -23 C 152.566406 -24.75 153.5625 -26.945312 154.21875 -29.59375 L 156.71875 -29.59375 C 156.050781 -20.644531 153.519531 -12.9375 149.125 -6.46875 C 144.726562 0 138.21875 3.234375 129.59375 3.234375 C 120.8125 3.234375 113.765625 0.289062 108.453125 -5.59375 C 103.148438 -11.476562 99.75 -18.734375 98.25 -27.359375 L 95.515625 -27.359375 C 92.867188 -18.410156 87.5625 -11.070312 79.59375 -5.34375 C 71.632812 0.375 62.265625 3.234375 51.484375 3.234375 Z M 68.15625 -13.1875 C 75.457031 -13.1875 81.507812 -15.960938 86.3125 -21.515625 C 91.125 -27.066406 93.53125 -34.070312 93.53125 -42.53125 C 93.53125 -50.820312 91.125 -57.742188 86.3125 -63.296875 C 81.507812 -68.859375 75.457031 -71.640625 68.15625 -71.640625 C 60.53125 -71.640625 54.394531 -68.984375 49.75 -63.671875 C 45.101562 -58.367188 42.78125 -51.320312 42.78125 -42.53125 C 42.78125 -33.90625 45.101562 -26.859375 49.75 -21.390625 C 54.394531 -15.921875 60.53125 -13.1875 68.15625 -13.1875 Z M 68.15625 -13.1875 "/></g></g></g><g fill="#f7de32" fill-opacity="1"><g transform="translate(356.594378, 501.401363)"><g><path d="M 47.515625 3.234375 C 36.898438 3.234375 28.6875 -0.203125 22.875 -7.078125 C 17.070312 -13.960938 14.171875 -22.628906 14.171875 -33.078125 L 14.171875 -129.59375 C 14.171875 -139.050781 13.753906 -146.597656 12.921875 -152.234375 C 12.097656 -157.867188 11.0625 -162.175781 9.8125 -165.15625 C 8.570312 -168.144531 7.207031 -170.304688 5.71875 -171.640625 L 5.71875 -174.125 C 13.507812 -174.457031 21.550781 -175.578125 29.84375 -177.484375 C 38.132812 -179.390625 45.019531 -182.164062 50.5 -185.8125 L 52.984375 -185.8125 L 52.984375 -40.046875 C 53.148438 -34.242188 54.1875 -29.515625 56.09375 -25.859375 C 58 -22.210938 60.773438 -20.390625 64.421875 -20.390625 C 66.910156 -20.390625 68.941406 -21.300781 70.515625 -23.125 C 72.097656 -24.957031 73.132812 -27.195312 73.625 -29.84375 L 76.125 -29.359375 C 75.125 -20.234375 72.425781 -12.519531 68.03125 -6.21875 C 63.632812 0.0820312 56.796875 3.234375 47.515625 3.234375 Z M 47.515625 3.234375 "/></g></g></g><g fill="#32120e" fill-opacity="0.4"><g transform="translate(440.177127, 506.459029)"><g/></g></g><g fill="#32120e" fill-opacity="0.4"><g transform="translate(513.302953, 506.459029)"><g/></g></g><g fill="#32120e" fill-opacity="0.4"><g transform="translate(586.42878, 506.459029)"><g/></g></g><g fill="#f7de32" fill-opacity="1"><g transform="translate(435.119453, 501.401363)"><g/></g></g><g fill="#f7de32" fill-opacity="1"><g transform="translate(508.24528, 501.401363)"><g/></g></g><g fill="#f7de32" fill-opacity="1"><g transform="translate(581.371107, 501.401363)"><g/></g></g><g fill="#32120e" fill-opacity="0.4"><g transform="translate(659.566528, 506.459029)"><g><path d="M 6.21875 0 L 6.21875 -2.734375 C 8.539062 -5.890625 10.445312 -12.976562 11.9375 -24 C 13.425781 -35.03125 14.171875 -49.582031 14.171875 -67.65625 L 14.171875 -84.328125 C 14.171875 -98.585938 13.34375 -108.703125 11.6875 -114.671875 C 10.03125 -120.640625 8.039062 -124.617188 5.71875 -126.609375 L 5.71875 -129.09375 C 13.507812 -129.425781 21.59375 -130.503906 29.96875 -132.328125 C 38.34375 -134.160156 45.1875 -136.898438 50.5 -140.546875 L 53.234375 -140.546875 L 53.234375 -111.1875 L 55.96875 -111.1875 C 59.28125 -120.476562 64.875 -127.609375 72.75 -132.578125 C 80.632812 -137.554688 89.800781 -140.046875 100.25 -140.046875 C 110.695312 -140.046875 119.734375 -137.472656 127.359375 -132.328125 C 134.984375 -127.191406 140.867188 -120.3125 145.015625 -111.6875 C 149.160156 -103.0625 151.234375 -93.523438 151.234375 -83.078125 L 151.234375 -66.90625 C 151.234375 -48.832031 152.019531 -34.40625 153.59375 -23.625 C 155.175781 -12.851562 157.046875 -5.890625 159.203125 -2.734375 L 159.203125 0 L 103.984375 0 L 103.984375 -2.734375 C 106.296875 -5.890625 108.195312 -12.851562 109.6875 -23.625 C 111.1875 -34.40625 111.9375 -48.832031 111.9375 -66.90625 L 111.9375 -86.3125 C 111.9375 -95.769531 109.238281 -103.769531 103.84375 -110.3125 C 98.457031 -116.863281 91.367188 -120.140625 82.578125 -120.140625 C 73.796875 -120.140625 66.707031 -116.945312 61.3125 -110.5625 C 55.925781 -104.1875 53.234375 -96.1875 53.234375 -86.5625 L 53.234375 -66.90625 C 53.234375 -48.832031 54.0625 -34.40625 55.71875 -23.625 C 57.375 -12.851562 59.28125 -5.890625 61.4375 -2.734375 L 61.4375 0 Z M 6.21875 0 "/></g></g></g><g fill="#32120e" fill-opacity="0.4"><g transform="translate(824.472835, 506.459029)"><g><path d="M 85.8125 3.234375 C 74.707031 3.066406 64.257812 1.285156 54.46875 -2.109375 C 44.6875 -5.515625 36.0625 -10.367188 28.59375 -16.671875 C 21.132812 -22.972656 15.25 -30.472656 10.9375 -39.171875 C 6.632812 -47.878906 4.484375 -57.625 4.484375 -68.40625 C 4.484375 -82.832031 7.878906 -95.4375 14.671875 -106.21875 C 21.472656 -117 30.71875 -125.332031 42.40625 -131.21875 C 54.101562 -137.101562 67.25 -140.046875 81.84375 -140.046875 C 91.125 -140.046875 100.363281 -138.632812 109.5625 -135.8125 C 118.769531 -133 126.441406 -129.1875 132.578125 -124.375 L 122.875 -93.53125 L 120.640625 -93.53125 C 118.316406 -106.300781 113.960938 -116.332031 107.578125 -123.625 C 101.191406 -130.925781 93.773438 -134.578125 85.328125 -134.578125 C 77.691406 -134.578125 70.804688 -131.585938 64.671875 -125.609375 C 58.535156 -119.640625 53.644531 -111.804688 50 -102.109375 C 46.351562 -92.410156 44.53125 -81.921875 44.53125 -70.640625 C 44.53125 -57.710938 46.804688 -46.144531 51.359375 -35.9375 C 55.921875 -25.738281 62.015625 -17.65625 69.640625 -11.6875 C 77.273438 -5.71875 85.816406 -2.734375 95.265625 -2.734375 C 104.722656 -2.734375 111.9375 -5.054688 116.90625 -9.703125 C 121.882812 -14.347656 124.375 -20.148438 124.375 -27.109375 C 124.375 -32.910156 122.710938 -37.46875 119.390625 -40.78125 C 116.078125 -44.101562 112.097656 -45.765625 107.453125 -45.765625 C 102.484375 -45.765625 98.671875 -44.101562 96.015625 -40.78125 C 93.359375 -37.46875 92.445312 -33.988281 93.28125 -30.34375 L 90.796875 -29.84375 C 89.628906 -31.34375 88.671875 -33.457031 87.921875 -36.1875 C 87.179688 -38.925781 86.8125 -41.375 86.8125 -43.53125 C 86.8125 -51.15625 89.335938 -57.742188 94.390625 -63.296875 C 99.453125 -68.859375 106.710938 -71.640625 116.171875 -71.640625 C 121.972656 -71.640625 127.148438 -70.226562 131.703125 -67.40625 C 136.265625 -64.59375 139.875 -60.820312 142.53125 -56.09375 C 145.1875 -51.363281 146.515625 -46.097656 146.515625 -40.296875 C 146.515625 -31.171875 143.773438 -23.332031 138.296875 -16.78125 C 132.828125 -10.238281 125.488281 -5.265625 116.28125 -1.859375 C 107.082031 1.535156 96.925781 3.234375 85.8125 3.234375 Z M 85.8125 3.234375 "/></g></g></g><g fill="#32120e" fill-opacity="0.4"><g transform="translate(975.450388, 506.459029)"><g><path d="M 89.046875 3.234375 C 78.429688 3.234375 68.066406 1.660156 57.953125 -1.484375 C 47.835938 -4.640625 38.757812 -9.242188 30.71875 -15.296875 C 22.675781 -21.347656 16.289062 -28.851562 11.5625 -37.8125 C 6.84375 -46.769531 4.484375 -56.96875 4.484375 -68.40625 C 4.484375 -82.832031 7.710938 -95.4375 14.171875 -106.21875 C 20.640625 -117 29.757812 -125.332031 41.53125 -131.21875 C 53.3125 -137.101562 67.160156 -140.046875 83.078125 -140.046875 C 103.640625 -140.046875 118.9375 -136.5625 128.96875 -129.59375 C 139.007812 -122.632812 144.03125 -114.097656 144.03125 -103.984375 C 144.03125 -96.515625 141.164062 -90.5 135.4375 -85.9375 C 129.71875 -81.382812 122.046875 -78.070312 112.421875 -76 C 102.804688 -73.925781 92.070312 -72.847656 80.21875 -72.765625 C 68.363281 -72.679688 56.300781 -73.46875 44.03125 -75.125 C 43.863281 -74.457031 43.78125 -73.378906 43.78125 -71.890625 C 43.78125 -58.617188 46.0625 -46.71875 50.625 -36.1875 C 55.1875 -25.65625 61.570312 -17.40625 69.78125 -11.4375 C 77.988281 -5.46875 87.476562 -2.484375 98.25 -2.484375 C 107.039062 -2.484375 113.921875 -4.640625 118.890625 -8.953125 C 123.867188 -13.265625 126.359375 -18.738281 126.359375 -25.375 C 126.359375 -30.84375 124.820312 -35.109375 121.75 -38.171875 C 118.6875 -41.242188 115 -42.78125 110.6875 -42.78125 C 105.882812 -42.78125 102.195312 -41.242188 99.625 -38.171875 C 97.050781 -35.109375 96.179688 -31.921875 97.015625 -28.609375 L 94.28125 -28.359375 C 93.113281 -29.679688 92.195312 -31.710938 91.53125 -34.453125 C 90.875 -37.191406 90.546875 -39.554688 90.546875 -41.546875 C 90.546875 -48.835938 93.03125 -55.132812 98 -60.4375 C 102.976562 -65.75 110.03125 -68.40625 119.15625 -68.40625 C 127.78125 -68.40625 134.785156 -65.460938 140.171875 -59.578125 C 145.554688 -53.691406 148.25 -46.601562 148.25 -38.3125 C 148.25 -30.507812 145.882812 -23.457031 141.15625 -17.15625 C 136.4375 -10.863281 129.640625 -5.890625 120.765625 -2.234375 C 111.890625 1.410156 101.316406 3.234375 89.046875 3.234375 Z M 44.03125 -80.09375 C 57.132812 -79.101562 68.988281 -79.4375 79.59375 -81.09375 C 90.207031 -82.75 98.625 -85.859375 104.84375 -90.421875 C 111.0625 -94.984375 114.171875 -100.828125 114.171875 -107.953125 C 114.003906 -115.253906 111.640625 -121.515625 107.078125 -126.734375 C 102.523438 -131.960938 95.191406 -134.578125 85.078125 -134.578125 C 74.296875 -134.578125 65.046875 -129.679688 57.328125 -119.890625 C 49.617188 -110.109375 45.1875 -96.84375 44.03125 -80.09375 Z M 44.03125 -80.09375 "/></g></g></g><g fill="#f7de32" fill-opacity="1"><g transform="translate(654.508855, 501.401363)"><g><path d="M 6.21875 0 L 6.21875 -2.734375 C 8.539062 -5.890625 10.445312 -12.976562 11.9375 -24 C 13.425781 -35.03125 14.171875 -49.582031 14.171875 -67.65625 L 14.171875 -84.328125 C 14.171875 -98.585938 13.34375 -108.703125 11.6875 -114.671875 C 10.03125 -120.640625 8.039062 -124.617188 5.71875 -126.609375 L 5.71875 -129.09375 C 13.507812 -129.425781 21.59375 -130.503906 29.96875 -132.328125 C 38.34375 -134.160156 45.1875 -136.898438 50.5 -140.546875 L 53.234375 -140.546875 L 53.234375 -111.1875 L 55.96875 -111.1875 C 59.28125 -120.476562 64.875 -127.609375 72.75 -132.578125 C 80.632812 -137.554688 89.800781 -140.046875 100.25 -140.046875 C 110.695312 -140.046875 119.734375 -137.472656 127.359375 -132.328125 C 134.984375 -127.191406 140.867188 -120.3125 145.015625 -111.6875 C 149.160156 -103.0625 151.234375 -93.523438 151.234375 -83.078125 L 151.234375 -66.90625 C 151.234375 -48.832031 152.019531 -34.40625 153.59375 -23.625 C 155.175781 -12.851562 157.046875 -5.890625 159.203125 -2.734375 L 159.203125 0 L 103.984375 0 L 103.984375 -2.734375 C 106.296875 -5.890625 108.195312 -12.851562 109.6875 -23.625 C 111.1875 -34.40625 111.9375 -48.832031 111.9375 -66.90625 L 111.9375 -86.3125 C 111.9375 -95.769531 109.238281 -103.769531 103.84375 -110.3125 C 98.457031 -116.863281 91.367188 -120.140625 82.578125 -120.140625 C 73.796875 -120.140625 66.707031 -116.945312 61.3125 -110.5625 C 55.925781 -104.1875 53.234375 -96.1875 53.234375 -86.5625 L 53.234375 -66.90625 C 53.234375 -48.832031 54.0625 -34.40625 55.71875 -23.625 C 57.375 -12.851562 59.28125 -5.890625 61.4375 -2.734375 L 61.4375 0 Z M 6.21875 0 "/></g></g></g><g fill="#f7de32" fill-opacity="1"><g transform="translate(819.415162, 501.401363)"><g><path d="M 85.8125 3.234375 C 74.707031 3.066406 64.257812 1.285156 54.46875 -2.109375 C 44.6875 -5.515625 36.0625 -10.367188 28.59375 -16.671875 C 21.132812 -22.972656 15.25 -30.472656 10.9375 -39.171875 C 6.632812 -47.878906 4.484375 -57.625 4.484375 -68.40625 C 4.484375 -82.832031 7.878906 -95.4375 14.671875 -106.21875 C 21.472656 -117 30.71875 -125.332031 42.40625 -131.21875 C 54.101562 -137.101562 67.25 -140.046875 81.84375 -140.046875 C 91.125 -140.046875 100.363281 -138.632812 109.5625 -135.8125 C 118.769531 -133 126.441406 -129.1875 132.578125 -124.375 L 122.875 -93.53125 L 120.640625 -93.53125 C 118.316406 -106.300781 113.960938 -116.332031 107.578125 -123.625 C 101.191406 -130.925781 93.773438 -134.578125 85.328125 -134.578125 C 77.691406 -134.578125 70.804688 -131.585938 64.671875 -125.609375 C 58.535156 -119.640625 53.644531 -111.804688 50 -102.109375 C 46.351562 -92.410156 44.53125 -81.921875 44.53125 -70.640625 C 44.53125 -57.710938 46.804688 -46.144531 51.359375 -35.9375 C 55.921875 -25.738281 62.015625 -17.65625 69.640625 -11.6875 C 77.273438 -5.71875 85.816406 -2.734375 95.265625 -2.734375 C 104.722656 -2.734375 111.9375 -5.054688 116.90625 -9.703125 C 121.882812 -14.347656 124.375 -20.148438 124.375 -27.109375 C 124.375 -32.910156 122.710938 -37.46875 119.390625 -40.78125 C 116.078125 -44.101562 112.097656 -45.765625 107.453125 -45.765625 C 102.484375 -45.765625 98.671875 -44.101562 96.015625 -40.78125 C 93.359375 -37.46875 92.445312 -33.988281 93.28125 -30.34375 L 90.796875 -29.84375 C 89.628906 -31.34375 88.671875 -33.457031 87.921875 -36.1875 C 87.179688 -38.925781 86.8125 -41.375 86.8125 -43.53125 C 86.8125 -51.15625 89.335938 -57.742188 94.390625 -63.296875 C 99.453125 -68.859375 106.710938 -71.640625 116.171875 -71.640625 C 121.972656 -71.640625 127.148438 -70.226562 131.703125 -67.40625 C 136.265625 -64.59375 139.875 -60.820312 142.53125 -56.09375 C 145.1875 -51.363281 146.515625 -46.097656 146.515625 -40.296875 C 146.515625 -31.171875 143.773438 -23.332031 138.296875 -16.78125 C 132.828125 -10.238281 125.488281 -5.265625 116.28125 -1.859375 C 107.082031 1.535156 96.925781 3.234375 85.8125 3.234375 Z M 85.8125 3.234375 "/></g></g></g><g fill="#f7de32" fill-opacity="1"><g transform="translate(970.392715, 501.401363)"><g><path d="M 89.046875 3.234375 C 78.429688 3.234375 68.066406 1.660156 57.953125 -1.484375 C 47.835938 -4.640625 38.757812 -9.242188 30.71875 -15.296875 C 22.675781 -21.347656 16.289062 -28.851562 11.5625 -37.8125 C 6.84375 -46.769531 4.484375 -56.96875 4.484375 -68.40625 C 4.484375 -82.832031 7.710938 -95.4375 14.171875 -106.21875 C 20.640625 -117 29.757812 -125.332031 41.53125 -131.21875 C 53.3125 -137.101562 67.160156 -140.046875 83.078125 -140.046875 C 103.640625 -140.046875 118.9375 -136.5625 128.96875 -129.59375 C 139.007812 -122.632812 144.03125 -114.097656 144.03125 -103.984375 C 144.03125 -96.515625 141.164062 -90.5 135.4375 -85.9375 C 129.71875 -81.382812 122.046875 -78.070312 112.421875 -76 C 102.804688 -73.925781 92.070312 -72.847656 80.21875 -72.765625 C 68.363281 -72.679688 56.300781 -73.46875 44.03125 -75.125 C 43.863281 -74.457031 43.78125 -73.378906 43.78125 -71.890625 C 43.78125 -58.617188 46.0625 -46.71875 50.625 -36.1875 C 55.1875 -25.65625 61.570312 -17.40625 69.78125 -11.4375 C 77.988281 -5.46875 87.476562 -2.484375 98.25 -2.484375 C 107.039062 -2.484375 113.921875 -4.640625 118.890625 -8.953125 C 123.867188 -13.265625 126.359375 -18.738281 126.359375 -25.375 C 126.359375 -30.84375 124.820312 -35.109375 121.75 -38.171875 C 118.6875 -41.242188 115 -42.78125 110.6875 -42.78125 C 105.882812 -42.78125 102.195312 -41.242188 99.625 -38.171875 C 97.050781 -35.109375 96.179688 -31.921875 97.015625 -28.609375 L 94.28125 -28.359375 C 93.113281 -29.679688 92.195312 -31.710938 91.53125 -34.453125 C 90.875 -37.191406 90.546875 -39.554688 90.546875 -41.546875 C 90.546875 -48.835938 93.03125 -55.132812 98 -60.4375 C 102.976562 -65.75 110.03125 -68.40625 119.15625 -68.40625 C 127.78125 -68.40625 134.785156 -65.460938 140.171875 -59.578125 C 145.554688 -53.691406 148.25 -46.601562 148.25 -38.3125 C 148.25 -30.507812 145.882812 -23.457031 141.15625 -17.15625 C 136.4375 -10.863281 129.640625 -5.890625 120.765625 -2.234375 C 111.890625 1.410156 101.316406 3.234375 89.046875 3.234375 Z M 44.03125 -80.09375 C 57.132812 -79.101562 68.988281 -79.4375 79.59375 -81.09375 C 90.207031 -82.75 98.625 -85.859375 104.84375 -90.421875 C 111.0625 -94.984375 114.171875 -100.828125 114.171875 -107.953125 C 114.003906 -115.253906 111.640625 -121.515625 107.078125 -126.734375 C 102.523438 -131.960938 95.191406 -134.578125 85.078125 -134.578125 C 74.296875 -134.578125 65.046875 -129.679688 57.328125 -119.890625 C 49.617188 -110.109375 45.1875 -96.84375 44.03125 -80.09375 Z M 44.03125 -80.09375 "/></g></g></g><g clip-path="url(#29ccd3b7fc)"><path fill="#ff3131" d="M 536.347656 441.820312 C 458.882812 561.046875 410.226562 411.40625 535.601562 439.550781 C 402.261719 404.390625 533.292969 310.957031 537.542969 438.148438 C 544.433594 296.386719 664.859375 411.40625 539.484375 439.550781 C 674.847656 415.65625 616.242188 561.046875 538.738281 441.820312 C 612.074219 555.144531 458.84375 561.046875 536.347656 441.820312 Z M 536.347656 441.820312 " fill-opacity="1" fill-rule="nonzero"/></g><g fill="#f7de32" fill-opacity="1"><g transform="translate(1178.992819, 316.664784)"><g><path d="M 9.28125 -2.15625 L -6.578125 -70.546875 L 2.0625 -72.546875 L 16.140625 -11.8125 L 46.015625 -18.734375 L 47.796875 -11.078125 Z M 9.28125 -2.15625 "/></g></g></g><g fill="#f7de32" fill-opacity="1"><g transform="translate(1236.530908, 306.015554)"><g><path d="M 29.15625 2.828125 L 3.921875 0.375 L 4.421875 -4.703125 L 12.796875 -5.78125 L 18.234375 -61.65625 L 10.21875 -64.40625 L 10.703125 -69.5 L 35.9375 -67.046875 L 35.453125 -61.953125 L 27.0625 -60.796875 L 21.625 -4.921875 L 29.65625 -2.25 Z M 29.15625 2.828125 "/></g></g></g><g fill="#f7de32" fill-opacity="1"><g transform="translate(1277.129275, 309.720346)"><g><path d="M 16.796875 7.5 L 8.703125 3.890625 L 37.328125 -60.203125 L 73.15625 -44.203125 L 70 -37.125 L 42.265625 -49.515625 L 32.109375 -26.796875 L 58.140625 -15.171875 L 54.984375 -8.078125 L 28.953125 -19.703125 Z M 16.796875 7.5 "/></g></g></g><g fill="#f7de32" fill-opacity="1"><g transform="translate(1328.931563, 333.752592)"><g><path d="M 33.84375 35.109375 L 6.609375 6.859375 L 57.15625 -41.859375 L 84.390625 -13.609375 L 78.796875 -8.21875 L 57.71875 -30.09375 L 41.9375 -14.875 L 61.78125 5.734375 L 56.265625 11.046875 L 36.421875 -9.5625 L 18.359375 7.84375 L 39.4375 29.71875 Z M 33.84375 35.109375 "/></g></g></g><path stroke-linecap="butt" transform="matrix(3.956882, 0, 0, 3.956882, 1167.307339, 241.439833)" fill="none" stroke-linejoin="miter" d="M 21.38118 68.424491 L 21.38118 67.672242 C 22.087031 66.373081 22.568787 63.481561 22.824472 58.999655 L 0.183937 58.999655 L -0.123084 58.247406 L 24.712006 24.418888 L 29.547331 24.418888 L 29.547331 55.668829 L 36.653225 55.668829 L 35.839769 58.999655 L 29.730951 58.999655 C 29.986637 63.481561 30.473329 66.373081 31.189052 67.672242 L 31.189052 68.424491 Z M 4.282808 55.668829 L 23.008092 55.668829 L 23.008092 30.266097 L 22.639865 30.266097 L 4.144599 55.285794 Z M 4.282808 55.668829 " stroke="#43d0c7" stroke-width="4.715588" stroke-opacity="1" stroke-miterlimit="4"/><g fill="#43d0c7" fill-opacity="1"><g transform="translate(1167.307339, 474.895897)"><g><path d="M 84.578125 37.3125 L 84.578125 34.328125 C 87.398438 29.191406 89.304688 17.75 90.296875 0 L 0.75 0 L -0.5 -2.984375 L 97.765625 -136.828125 L 116.921875 -136.828125 L 116.921875 -13.1875 L 145.03125 -13.1875 L 141.796875 0 L 117.671875 0 C 118.660156 17.75 120.566406 29.191406 123.390625 34.328125 L 123.390625 37.3125 Z M 16.921875 -13.1875 L 91.046875 -13.1875 L 91.046875 -113.6875 L 89.5625 -113.6875 L 16.421875 -14.671875 Z M 16.921875 -13.1875 "/></g></g></g></svg>